<?xml version="1.0" standalone="no"?>
<!DOCTYPE svg PUBLIC "-//W3C//DTD SVG 20010904//EN"
 "http://www.w3.org/TR/2001/REC-SVG-20010904/DTD/svg10.dtd">
<svg version="1.0" xmlns="http://www.w3.org/2000/svg"
 width="1024.000000pt" height="1024.000000pt" viewBox="0 0 1024.000000 1024.000000"
 preserveAspectRatio="xMidYMid meet">
<metadata>
Created by potrace 1.14, written by Peter Selinger 2001-2017
</metadata>
<g transform="translate(0.000000,1024.000000) scale(0.100000,-0.100000)"
fill="#000000" stroke="none">
<path d="M6644 7591 c-79 -38 -485 -267 -534 -301 -14 -9 -61 -37 -105 -62
-44 -25 -102 -58 -130 -73 -27 -16 -86 -48 -130 -73 -44 -24 -105 -61 -135
-80 -30 -20 -120 -71 -200 -115 -80 -44 -176 -99 -215 -122 -124 -75 -401
-215 -453 -229 -53 -13 -126 -12 -587 14 -455 25 -602 4 -863 -120 -149 -71
-274 -154 -382 -254 -25 -22 -67 -59 -95 -81 -83 -65 -164 -146 -228 -225
-142 -175 -368 -420 -387 -420 -3 0 -5 -30 -3 -66 2 -58 6 -71 30 -97 19 -20
24 -31 16 -34 -17 -6 -16 -52 2 -83 20 -35 19 -154 -2 -209 l-17 -44 28 -22
c21 -17 27 -29 24 -51 l-3 -29 -23 38 c-12 21 -26 57 -31 79 -14 61 -26 68
-94 59 -32 -4 -138 -4 -235 0 -160 7 -376 16 -1242 49 -151 6 -338 15 -415 20
-77 6 -161 10 -187 10 l-48 0 0 -1763 0 -1764 98 14 c53 7 178 26 277 43 99
16 270 43 380 60 110 17 243 37 295 45 221 35 602 88 830 115 307 36 480 59
501 66 22 6 26 34 39 269 6 110 13 209 15 220 3 13 33 34 91 64 100 51 223
139 310 223 l61 58 73 -30 c40 -16 105 -39 144 -51 96 -28 253 -80 356 -119
47 -17 144 -45 215 -62 114 -26 158 -30 350 -37 l220 -7 195 -56 c403 -117
455 -122 845 -78 226 26 297 31 370 24 50 -4 137 -8 195 -8 l105 -1 125 57
c69 31 204 80 300 108 372 110 388 117 526 227 38 30 112 80 164 111 52 30
120 72 150 92 75 51 127 76 234 115 50 18 180 76 288 129 166 81 208 106 270
161 40 36 127 102 193 147 66 45 170 119 230 164 144 107 170 156 126 242 -20
39 -117 140 -165 171 l-29 19 54 27 c30 15 113 65 184 110 147 93 436 245 570
300 106 44 199 90 238 118 28 19 29 22 25 98 l-3 79 -63 63 -64 64 20 39 c11
22 32 50 47 64 15 14 36 42 46 62 35 69 23 114 -51 192 l-51 54 16 46 c12 34
13 51 5 66 -6 11 -8 24 -5 29 3 5 0 33 -7 61 l-12 52 59 52 c41 37 57 57 52
69 -3 9 -45 44 -93 79 -48 35 -145 107 -215 161 l-128 97 1 68 c1 37 -2 90 -6
119 l-9 52 46 47 c43 43 51 64 26 64 -16 0 -358 167 -409 200 -68 43 -74 37
-10 -9 30 -22 133 -77 227 -123 95 -46 172 -87 170 -92 -2 -5 -19 -18 -39 -29
l-35 -21 -79 36 c-44 19 -97 41 -119 48 -64 20 -265 118 -304 148 -20 15 -48
34 -63 42 -15 8 -71 42 -125 74 -54 33 -188 101 -298 151 -363 167 -781 384
-1149 599 -73 43 -116 57 -116 39 0 -5 31 -25 68 -46 37 -20 119 -67 182 -103
353 -202 812 -437 1065 -544 150 -64 343 -172 362 -203 25 -42 304 -180 437
-217 65 -18 96 -34 85 -43 -4 -4 -196 -148 -324 -242 -81 -61 -231 -168 -432
-309 -158 -111 -403 -256 -597 -353 -71 -36 -170 -89 -220 -118 -51 -29 -130
-72 -176 -95 -47 -23 -122 -65 -168 -92 -67 -41 -85 -48 -97 -38 -30 24 -16
44 53 77 128 61 435 265 552 367 82 72 372 252 540 336 69 34 208 117 310 185
102 67 205 135 230 150 25 15 66 44 92 63 38 29 45 38 36 50 -7 7 -57 45 -112
83 -56 38 -123 85 -151 105 -27 20 -34 23 -15 7 19 -15 62 -54 95 -86 33 -33
84 -75 113 -95 60 -40 69 -29 -83 -117 -55 -32 -125 -75 -155 -95 -187 -126
-319 -207 -322 -198 -2 6 -28 -5 -58 -24 -30 -20 -82 -49 -115 -67 -33 -17
-112 -63 -175 -102 -146 -90 -169 -100 -195 -86 -18 9 -19 9 -5 -8 13 -16 11
-21 -30 -57 -129 -112 -448 -329 -572 -389 l-48 -23 -42 31 c-23 17 -44 35
-46 41 -2 6 14 16 35 21 56 16 166 91 604 413 79 59 137 91 201 114 34 12 42
12 63 -2 30 -19 57 -8 30 13 -18 12 -18 13 3 13 12 0 26 9 32 20 6 11 22 23
35 26 19 5 25 13 25 35 0 56 -90 129 -160 129 -41 0 -30 17 17 26 68 13 160
-59 172 -134 8 -46 22 -50 63 -13 31 27 32 30 17 48 -9 10 -19 31 -23 46 -6
24 -11 28 -30 23 -17 -4 -26 -1 -30 10 -9 23 -8 24 12 24 10 0 44 -25 76 -55
57 -55 76 -65 76 -44 0 15 -87 97 -125 117 -16 8 -64 17 -105 20 -67 4 -84 1
-143 -24 -37 -16 -67 -31 -67 -34 0 -3 13 -11 29 -18 26 -11 28 -16 24 -55 -3
-23 -7 -44 -10 -47 -7 -8 -23 24 -19 40 2 8 5 22 7 30 7 27 -38 24 -57 -5 -16
-25 -16 -27 22 -81 21 -31 44 -58 51 -61 17 -7 17 -23 -1 -23 -21 0 -69 49
-100 103 l-28 47 28 23 c15 12 32 25 38 29 6 4 8 10 4 13 -9 9 -106 -42 -153
-80 -66 -54 -108 -75 -148 -75 -32 0 -37 -3 -33 -17 4 -14 -14 -30 -76 -68
-126 -77 -132 -80 -125 -61 8 21 -3 20 -33 -5 -14 -11 -19 -19 -11 -17 27 7
136 -111 118 -128 -2 -3 -18 11 -34 30 -44 50 -75 67 -116 64 -19 -2 -33 -5
-31 -7 7 -8 -18 -31 -34 -31 -9 0 -26 -10 -39 -22 -25 -23 -44 -18 -23 7 7 8
8 15 3 15 -5 0 -15 -12 -22 -27 -12 -25 -10 -29 26 -60 21 -18 41 -32 46 -33
12 0 8 17 -8 30 -16 13 -21 40 -7 40 17 0 74 -68 63 -74 -6 -4 -15 -5 -20 -1
-5 3 -12 1 -15 -3 -3 -5 15 -33 40 -63 l46 -53 -22 -18 c-25 -20 -51 -25 -32
-6 26 26 13 58 -45 111 -31 29 -67 62 -79 75 l-22 23 -30 -26 c-16 -14 -37
-25 -45 -25 -8 0 -26 -9 -40 -20 -14 -11 -29 -20 -33 -20 -17 0 -84 -35 -84
-44 0 -5 12 -23 28 -40 l27 -29 -32 22 c-18 12 -35 26 -39 32 -3 6 -29 20 -57
33 -29 13 -76 44 -104 70 -49 45 -53 51 -53 94 0 140 -70 259 -204 348 -55 36
-301 128 -446 165 -106 27 -270 26 -417 -4 -81 -16 -114 -19 -117 -11 -2 6
-53 42 -113 80 -207 131 -307 214 -286 235 9 9 36 -9 103 -66 104 -88 308
-228 321 -219 22 13 215 36 309 37 124 0 228 -23 376 -81 54 -22 126 -48 159
-58 91 -28 227 -123 282 -198 76 -103 105 -189 77 -231 -17 -25 -12 -45 11
-45 21 0 25 25 16 100 -10 74 -44 148 -105 224 -33 40 -116 101 -199 142 -52
27 -276 114 -368 144 -135 44 -322 50 -454 14 -56 -15 -60 -15 -72 2 -19 26
-16 32 11 27 16 -3 58 12 125 46 55 28 107 51 115 51 8 0 30 9 48 21 76 47
158 95 238 137 120 62 153 82 171 104 13 17 17 17 27 5 13 -15 -18 -34 -283
-172 -107 -56 -156 -85 -144 -85 16 0 346 157 457 218 186 101 360 189 416
208 49 17 109 62 127 95 7 14 1 44 -26 122 -20 56 -37 106 -38 112 -4 18 -79
56 -98 50 -24 -8 -24 -22 0 -30 19 -6 80 -127 102 -202 10 -36 10 -46 -5 -67
-27 -42 -62 -59 -105 -53 -75 10 -161 86 -161 145 0 34 15 26 35 -19 42 -92
145 -130 201 -74 29 29 27 47 -18 147 -36 79 -63 107 -110 114 -31 5 -37 2
-71 -38 -71 -83 -98 -107 -135 -118 -20 -7 -143 -66 -272 -132 -373 -191 -399
-204 -510 -253 -58 -25 -142 -65 -187 -87 l-82 -41 -50 22 c-27 11 -54 21 -60
21 -22 0 -10 -40 16 -57 15 -10 35 -25 44 -33 9 -8 51 -44 93 -79 42 -35 75
-66 72 -69 -5 -5 -19 4 -81 49 l-30 22 30 -29 c17 -16 49 -45 73 -63 49 -38
56 -61 11 -34 -29 17 -191 154 -274 232 -22 21 -48 40 -57 44 -10 3 -18 11
-18 16 0 5 75 34 168 65 178 61 517 224 832 400 85 48 227 123 315 167 88 45
210 110 270 144 143 83 154 85 198 45 19 -17 43 -37 52 -44 19 -13 13 -36 -8
-36 -7 0 -20 8 -29 19 -25 30 -81 35 -133 12 -25 -11 -48 -26 -51 -34 -3 -8 8
-28 25 -45 17 -17 31 -38 31 -47 0 -15 4 -14 33 3 17 11 59 30 92 42 33 13 72
33 86 47 23 21 31 23 65 15 21 -4 47 -6 57 -4 16 3 16 5 -2 30 -23 34 -53 103
-46 110 3 3 32 -20 64 -51 33 -32 64 -57 70 -57 24 0 8 -18 -39 -44 -38 -20
-58 -25 -83 -21 -24 5 -39 1 -59 -14 -14 -11 -38 -25 -54 -31 -17 -7 -24 -14
-17 -18 6 -4 19 -33 29 -65 18 -60 14 -85 -16 -95 -10 -4 -11 3 -7 27 12 58
-11 79 -43 39 -15 -19 -20 -20 -34 -9 -22 18 -20 27 8 58 14 15 23 30 20 34
-11 19 -103 -35 -104 -61 0 -8 15 -50 34 -92 l33 -78 114 68 c226 134 268 174
219 204 -28 18 -25 25 19 48 22 10 41 25 44 32 3 9 15 3 38 -18 60 -54 93 -73
356 -193 142 -65 403 -186 580 -270 178 -83 329 -151 337 -151 28 0 25 -17 -9
-50 -67 -65 -88 -105 -83 -155 8 -62 29 -90 97 -125 96 -48 91 -64 -8 -24 -18
8 -37 11 -42 8 -5 -3 -31 7 -58 22 -70 37 -118 29 -207 -37 -37 -27 -71 -49
-75 -49 -11 0 -12 -34 -2 -43 3 -4 19 8 34 25 l28 33 30 -32 c54 -59 103 -37
116 50 9 60 29 62 99 9 76 -57 92 -65 117 -52 49 27 34 1 -25 -42 -36 -26 -63
-41 -60 -34 8 20 -94 29 -142 12 -42 -14 -53 -41 -18 -41 21 0 64 -31 64 -45
0 -21 -48 -17 -89 7 l-45 26 35 -42 c30 -37 38 -41 67 -37 20 3 74 34 134 78
99 72 147 102 239 152 86 47 135 98 123 130 -10 26 -28 19 -48 -18 -10 -19
-34 -49 -53 -68 l-35 -33 30 45 c17 25 33 66 37 93 l8 49 -54 50 c-29 27 -65
56 -81 64 -33 17 -36 42 -8 52 17 6 -12 24 -142 89 -90 45 -224 106 -298 136
-180 73 -359 159 -505 242 -86 49 -148 76 -218 96 -108 30 -241 103 -383 209
-45 33 -84 60 -88 60 -3 0 -25 -12 -47 -26 -43 -27 -119 -57 -126 -50 -3 2 35
26 83 52 48 26 82 50 75 52 -17 6 -220 -87 -326 -149 -44 -25 -156 -86 -250
-134 -146 -76 -221 -117 -435 -238 -248 -140 -506 -269 -625 -312 -49 -18
-142 -47 -205 -65 -138 -39 -280 -97 -280 -115 0 -19 200 -175 350 -274 102
-67 130 -81 153 -77 22 5 27 2 27 -14 0 -29 -24 -25 -98 16 -107 60 -363 239
-417 292 l-50 48 -65 -29 -64 -29 49 -44 c28 -24 59 -46 70 -50 22 -7 246
-138 435 -254 69 -43 153 -91 186 -108 34 -16 95 -55 135 -85 41 -30 102 -69
136 -88 40 -21 63 -40 65 -53 2 -11 26 -35 55 -54 l52 -35 -25 -19 c-19 -15
-24 -29 -24 -63 0 -52 -25 -74 -60 -55 -28 15 -25 30 10 43 24 9 32 19 36 49
4 23 13 38 23 40 10 2 0 12 -27 26 -25 13 -52 20 -63 17 -20 -7 -27 9 -9 20
25 16 8 43 -42 66 -29 13 -69 38 -88 55 -19 17 -89 61 -155 99 -66 37 -160 91
-210 120 -49 29 -119 67 -155 85 -36 18 -90 49 -120 70 -30 20 -88 56 -128 79
-68 38 -80 41 -147 41 -148 0 -275 -54 -1065 -452 -561 -284 -640 -329 -640
-369 0 -19 57 -68 143 -122 54 -35 77 -61 64 -73 -3 -3 -27 10 -54 29 -26 18
-76 50 -110 71 -34 20 -73 50 -87 66 -26 31 -41 37 -51 20 -20 -32 36 -77 240
-192 98 -55 120 -63 96 -34 -7 8 -11 22 -9 30 2 10 20 0 58 -35 30 -27 50 -49
43 -49 -6 0 -15 5 -18 10 -3 6 -12 10 -18 10 -7 0 1 -11 18 -23 16 -12 64 -52
107 -89 125 -107 213 -170 378 -268 182 -109 364 -203 548 -285 73 -32 137
-65 143 -72 6 -7 -38 10 -97 38 -60 28 -131 60 -159 71 -110 43 -603 294 -655
333 -102 77 -323 228 -417 286 -131 79 -260 171 -270 191 -7 14 -12 15 -30 5
-21 -12 -19 -14 40 -65 34 -29 139 -101 232 -159 161 -100 438 -293 450 -314
4 -5 -8 -9 -26 -9 -37 0 -127 48 -249 132 -47 32 -152 103 -235 156 -89 58
-178 126 -219 166 -61 61 -68 71 -57 88 10 17 7 25 -28 60 -23 22 -39 44 -36
48 3 5 38 22 78 38 142 60 677 320 808 394 164 93 346 184 561 282 90 41 212
97 271 125 60 28 166 74 235 102 70 27 150 62 179 77 28 15 150 77 270 138
120 60 250 130 288 156 39 25 142 85 230 133 88 49 205 116 260 150 55 34 147
88 205 120 58 32 175 99 260 150 85 51 191 111 235 135 44 24 122 68 172 97
120 70 196 103 236 103 34 0 105 -38 293 -157 259 -165 476 -286 909 -511 149
-77 297 -154 330 -171 86 -45 302 -141 317 -141 12 0 -49 32 -227 119 -55 26
-192 98 -305 158 -113 60 -270 143 -350 185 -80 41 -167 88 -195 103 -103 58
-411 238 -445 259 -205 131 -302 186 -331 186 -8 0 -51 -17 -95 -39z m116
-516 c7 -8 25 -15 41 -15 15 0 31 -4 34 -10 3 -5 1 -10 -5 -10 -6 0 -35 -18
-65 -40 -30 -22 -56 -40 -59 -40 -12 0 -17 89 -7 109 14 24 43 27 61 6z m-466
-146 c51 -78 56 -99 26 -99 -11 0 -20 4 -20 9 0 5 -20 40 -45 76 -25 37 -42
71 -39 76 13 21 34 4 78 -62z m-169 -129 c3 -5 -3 -10 -14 -10 -12 0 -52 -14
-91 -31 -50 -23 -70 -37 -70 -50 0 -21 -11 -24 -26 -9 -7 7 -17 5 -30 -5 -18
-14 -17 -17 43 -75 35 -32 58 -62 53 -65 -6 -4 -21 2 -34 12 -30 24 -106 111
-106 122 0 7 175 98 220 114 25 9 48 8 55 -3z m25 -105 c9 -11 16 -12 26 -4 7
6 18 8 24 4 17 -10 -14 -40 -66 -64 -55 -26 -85 -26 -115 -1 l-24 20 25 20
c29 23 50 26 50 6 0 -22 27 -38 50 -31 31 10 21 40 -13 40 -28 -1 -36 10 -14
18 23 10 45 7 57 -8z m-360 -60 c-1 -5 -7 -9 -15 -7 -7 1 -30 -9 -50 -22 -20
-14 -45 -28 -56 -31 -28 -9 -23 -30 17 -75 30 -32 33 -41 20 -46 -15 -6 -44
22 -85 79 -17 24 -11 29 76 79 66 36 95 44 93 23z m90 -78 c0 -6 -9 -2 -20 8
-11 10 -20 23 -20 28 0 6 9 2 20 -8 11 -10 20 -23 20 -28z m-49 -3 c11 -14 9
-19 -11 -35 -32 -24 -43 -24 -64 0 -17 19 -17 20 11 35 36 20 48 20 64 0z
m-251 -71 c52 -70 53 -73 33 -73 -10 0 -31 20 -48 45 -16 24 -38 45 -47 45
-11 0 -15 5 -12 15 11 27 38 15 74 -32z m-1420 11 c91 -8 211 -18 267 -21 172
-10 166 -22 -52 -116 -82 -36 -224 -101 -315 -145 -91 -44 -192 -91 -225 -105
-131 -55 -309 -144 -479 -239 -98 -55 -253 -134 -345 -175 -91 -42 -204 -93
-250 -114 l-85 -38 -29 25 c-29 25 -79 32 -106 15 -17 -11 6 -18 68 -23 19 -2
36 -7 38 -13 1 -5 -32 -27 -75 -47 -102 -49 -172 -95 -172 -112 0 -8 15 -24
34 -35 37 -23 52 -49 37 -64 -6 -6 -23 1 -48 20 -21 17 -68 47 -105 68 -38 20
-71 41 -74 46 -3 5 61 78 144 162 82 84 179 193 217 242 117 154 121 158 368
326 76 52 171 117 213 146 76 52 240 127 373 170 133 43 337 52 601 27z m1398
-74 c-2 -3 -27 -27 -55 -54 l-53 -48 -47 47 -47 48 30 24 c32 26 67 38 83 28
20 -12 11 -24 -21 -27 -40 -4 -49 -35 -19 -62 22 -20 42 -13 75 23 17 19 18
24 5 49 -23 47 -22 48 15 12 20 -19 35 -37 34 -40z m2736 15 c14 -72 76 -98
115 -49 18 22 22 24 27 10 9 -23 -24 -56 -55 -56 -14 0 -46 9 -70 20 -57 26
-71 25 -71 -4 0 -17 15 -35 55 -65 75 -57 91 -82 75 -120 -6 -16 -19 -32 -27
-36 -13 -4 -14 -3 -4 9 20 24 3 53 -52 87 -119 72 -126 108 -45 212 17 20 33
35 38 32 4 -3 11 -21 14 -40z m-3601 -82 c30 -41 155 -145 205 -168 17 -9 32
-20 32 -25 0 -6 9 -10 20 -10 11 0 20 -7 20 -15 0 -8 -7 -15 -15 -15 -9 0 -18
7 -21 15 -4 8 -12 15 -20 15 -16 0 -160 107 -221 164 -24 21 -43 48 -43 58 0
28 14 22 43 -19z m665 -35 c35 -37 27 -55 -10 -21 -10 9 -18 11 -18 6 0 -6 7
-16 15 -23 8 -7 12 -16 9 -22 -10 -16 -33 12 -40 48 -7 36 -13 41 -32 22 -9
-9 -12 -8 -12 4 0 20 43 51 49 34 2 -6 20 -28 39 -48z m-122 -25 c29 -32 54
-66 54 -75 0 -26 -9 -22 -20 7 l-10 25 -34 -37 -34 -38 -27 25 c-15 14 -34 38
-42 54 -15 28 -14 31 7 48 14 11 31 16 44 13 19 -6 19 -4 -4 14 -21 18 -22 21
-7 21 10 0 43 -26 73 -57z m-179 31 c-3 -3 -12 -4 -19 -1 -8 3 -5 6 6 6 11 1
17 -2 13 -5z m-505 -31 c10 -9 26 -21 37 -27 10 -6 56 -36 102 -67 124 -84
320 -204 386 -238 32 -16 76 -45 98 -65 22 -20 59 -51 83 -67 l43 -31 -21 42
c-26 51 -19 66 9 18 23 -39 84 -88 141 -114 8 -4 22 -13 30 -20 8 -7 28 -17
43 -23 26 -10 28 -9 25 12 -2 14 2 22 12 22 9 0 16 -11 18 -25 2 -18 14 -30
41 -42 21 -10 41 -18 46 -18 5 0 17 -7 27 -17 10 -9 21 -13 24 -10 4 4 -7 14
-25 24 -17 10 -31 21 -31 25 0 4 -14 23 -31 43 -17 19 -28 35 -25 35 19 0 63
-32 79 -57 11 -15 34 -39 53 -53 68 -51 26 -50 -111 2 -161 62 -181 71 -239
109 -32 22 -63 39 -69 39 -5 0 -32 14 -59 30 -26 17 -51 30 -54 30 -4 0 -32
19 -64 43 -31 24 -115 79 -186 122 -329 200 -374 228 -374 236 0 4 -8 5 -18 2
-12 -3 -22 4 -29 20 -18 39 5 51 39 20z m4400 -105 c0 -13 1 -30 2 -38 1 -8
-15 -30 -34 -48 l-35 -34 33 22 c18 12 36 19 40 15 4 -3 -1 -11 -11 -17 -10
-5 -33 -23 -51 -39 -37 -32 -46 -35 -46 -17 0 6 -10 23 -22 36 l-23 24 65 59
c36 32 68 58 73 59 4 0 8 -10 9 -22z m-4468 -50 c-1 -12 5 -18 17 -18 19 0
192 -120 185 -128 -2 -2 -14 1 -25 8 -24 12 -22 15 -40 -68 -18 -87 -13 -163
15 -254 47 -149 84 -208 212 -338 40 -41 80 -83 89 -92 9 -10 20 -15 25 -12 5
4 18 -2 28 -12 36 -36 49 -44 63 -38 9 3 16 -3 20 -16 4 -16 11 -20 25 -16 11
4 24 0 32 -9 8 -9 21 -13 35 -9 18 4 25 1 30 -15 7 -23 25 -27 43 -9 9 9 18 6
37 -12 22 -21 29 -23 46 -11 18 10 24 10 38 -3 23 -21 41 -20 56 1 11 15 13
15 24 -5 13 -24 50 -29 68 -11 9 9 16 8 28 -5 22 -22 30 -20 52 8 14 18 23 22
38 16 19 -8 19 -9 -3 -9 -14 -1 -21 -5 -16 -12 9 -15 143 -4 207 17 62 20 97
13 167 -33 30 -20 71 -47 90 -60 20 -12 54 -41 75 -64 39 -39 39 -41 21 -55
-25 -18 -36 -18 -36 1 0 26 -55 79 -74 72 -15 -6 -14 -11 9 -44 14 -21 25 -41
25 -45 0 -19 -17 -5 -40 32 -24 39 -43 50 -55 30 -6 -10 41 -110 52 -110 4 0
17 9 29 21 12 12 29 19 36 17 7 -3 -8 -18 -37 -36 -33 -21 -51 -27 -54 -19 -6
21 -43 78 -47 74 -3 -2 4 -24 15 -49 l19 -44 -34 -22 c-38 -25 -60 -30 -26 -6
19 13 22 21 16 52 -7 40 -30 92 -41 92 -9 0 -93 -50 -93 -56 0 -2 16 -27 35
-55 19 -28 35 -55 35 -59 0 -9 -62 -50 -74 -50 -4 0 -5 4 -2 9 10 16 -55 111
-75 111 -11 0 -19 -2 -19 -5 0 -4 19 -33 42 -65 l41 -59 -24 -20 c-34 -27
-129 -85 -133 -80 -2 2 -7 15 -11 29 -7 23 -6 24 7 6 13 -16 18 -17 39 -6 30
16 79 61 79 73 0 8 -60 107 -65 107 -2 0 -24 -9 -50 -21 -38 -17 -46 -25 -42
-41 5 -18 4 -19 -12 -4 -15 14 -20 13 -59 -10 -23 -14 -42 -29 -42 -34 0 -5
20 -34 44 -64 l45 -54 -38 -25 c-20 -14 -66 -39 -102 -57 -35 -18 -109 -59
-164 -90 -55 -32 -120 -66 -145 -76 -25 -9 -49 -21 -55 -26 -5 -4 -20 -8 -33
-8 -13 0 -20 -4 -17 -10 11 -18 -24 -22 -91 -10 -90 15 -144 43 -144 74 0 48
35 73 155 111 63 20 120 35 127 34 7 -2 36 9 65 24 58 30 58 30 91 -45 16 -36
26 -48 43 -48 15 0 19 5 15 15 -3 9 0 15 9 15 8 0 23 10 35 22 26 28 28 103 3
130 -17 19 -16 20 7 38 43 33 200 117 350 187 187 88 320 161 327 179 9 23 -4
27 -29 10 -12 -9 -30 -16 -39 -16 -9 0 -24 -10 -35 -22 -10 -11 -110 -65 -222
-119 -191 -93 -429 -238 -403 -247 6 -2 8 -8 5 -14 -4 -6 -9 -6 -14 2 -6 10
-28 3 -86 -27 -44 -22 -126 -52 -184 -67 -154 -40 -186 -54 -219 -92 -45 -51
-49 -79 -16 -114 34 -36 64 -48 140 -59 l60 -8 -67 -31 c-37 -18 -71 -32 -76
-32 -5 0 -40 24 -78 53 -158 122 -326 225 -624 380 -587 306 -666 352 -884
514 -32 23 -48 46 -65 89 -21 55 -21 59 -5 106 22 67 11 71 -20 9 -32 -63 -55
-66 -114 -15 -69 59 -71 69 -21 120 39 40 112 75 126 60 9 -8 -8 -26 -24 -26
-39 0 -67 -52 -41 -78 20 -20 43 -14 78 23 19 19 39 35 46 35 7 0 27 -17 45
-37 46 -54 55 -57 86 -34 14 12 36 21 48 21 12 0 30 9 40 19 16 19 16 21 -11
47 -16 14 -52 41 -80 59 -52 34 -70 52 -61 62 7 6 94 -43 125 -70 41 -37 23
-6 -29 49 -29 30 -59 54 -69 54 -9 0 -27 -11 -40 -25 -13 -14 -29 -25 -37 -25
-18 0 -17 -3 17 -53 36 -53 52 -94 41 -102 -5 -3 -12 3 -16 13 -18 47 -71 111
-93 112 -37 0 -147 -55 -194 -98 -23 -21 -49 -37 -55 -35 -29 10 -9 -18 62
-89 42 -42 78 -72 81 -67 3 5 19 9 35 9 26 0 28 -2 19 -19 -6 -13 -17 -17 -30
-14 -26 7 -26 -9 1 -33 20 -18 21 -18 35 1 8 10 14 24 14 29 1 6 14 -15 31
-46 21 -41 42 -66 72 -84 23 -15 80 -52 127 -83 175 -117 357 -218 776 -430
267 -135 408 -220 573 -345 77 -58 90 -72 72 -74 -15 -2 -60 22 -134 71 -126
84 -363 201 -680 337 -432 184 -699 357 -927 601 -58 62 -130 130 -160 152
-71 53 -120 98 -120 112 0 18 201 127 615 335 661 330 905 432 1030 427 50 -2
60 -5 59 -19z m538 -31 c7 -7 28 -23 46 -36 18 -12 30 -27 27 -32 -10 -15 -25
-10 -50 17 -14 15 -31 24 -39 21 -18 -7 -30 8 -22 28 7 18 20 19 38 2z m3768
-78 c16 -31 18 -44 10 -54 -24 -29 -242 -156 -355 -208 -66 -29 -184 -94 -263
-143 -78 -49 -219 -136 -313 -194 -94 -58 -212 -136 -262 -174 -132 -100 -333
-231 -492 -321 -77 -43 -150 -89 -162 -101 -16 -16 -23 -19 -23 -9 0 16 61 56
335 220 105 62 226 140 270 173 126 94 261 183 448 296 94 57 256 159 358 227
103 68 216 142 253 164 37 22 81 55 99 74 l32 35 -30 -19 c-16 -10 -50 -34
-75 -53 -65 -52 -70 -55 -70 -50 0 2 30 29 68 58 37 30 84 69 105 87 20 18 39
33 42 33 2 0 14 -18 25 -41z m-3246 -1 c23 -32 21 -80 -1 -76 -13 2 -20 16
-23 43 -7 52 -34 55 -38 5 -4 -43 -19 -61 -32 -40 -20 31 17 90 56 90 13 0 30
-10 38 -22z m126 -45 c0 -33 -1 -35 -27 -29 -31 8 -55 33 -51 55 5 23 28 25
28 2 0 -12 5 -21 11 -21 5 0 9 8 8 18 -3 30 1 35 16 22 8 -7 15 -28 15 -47z
m74 11 c8 -20 -4 -44 -20 -44 -8 0 -14 9 -14 21 0 11 -5 29 -10 40 -10 17 -9
18 14 8 14 -7 27 -18 30 -25z m2426 23 c0 -2 -10 -12 -22 -23 l-23 -19 19 23
c18 21 26 27 26 19z m888 -66 c71 -62 264 -209 313 -238 16 -10 29 -21 29 -25
0 -10 -84 -67 -235 -157 -404 -241 -1052 -687 -1016 -699 47 -16 616 323 861
512 84 65 250 176 263 176 5 0 -26 -23 -69 -51 -44 -29 -122 -84 -174 -123
-224 -167 -453 -317 -630 -413 -158 -86 -248 -142 -620 -388 -286 -189 -307
-201 -317 -192 -17 18 188 174 472 360 91 59 153 108 205 163 94 99 244 211
549 411 295 194 466 304 509 329 36 21 42 44 12 44 -24 0 -24 0 -6 36 10 18
12 33 6 45 -5 9 -58 48 -117 87 -60 38 -118 79 -130 90 -36 33 -26 92 15 92 7
0 44 -26 80 -59z m-3804 27 c5 -9 7 -20 3 -24 -8 -8 -47 24 -47 38 0 15 32 5
44 -14z m-5 -76 c1 -9 -4 -10 -17 -3 -29 15 -72 63 -72 79 0 18 88 -57 89 -76z
m-482 -9 c-40 -84 -42 -92 -42 -183 0 -73 5 -106 20 -140 64 -147 181 -270
326 -345 48 -25 94 -45 102 -45 8 0 35 -9 61 -21 26 -11 55 -17 65 -14 11 3
22 1 26 -5 3 -5 18 -10 33 -10 31 0 60 -15 50 -26 -4 -4 -21 -1 -37 6 -16 6
-35 9 -41 5 -7 -4 -22 -3 -33 3 -12 6 -65 27 -118 47 -53 20 -131 56 -174 81
-100 59 -238 196 -283 281 -35 66 -67 190 -53 208 4 5 13 30 20 55 16 55 45
114 79 158 43 56 42 35 -1 -55z m4139 39 c-4 -11 -39 -41 -79 -67 -39 -27
-124 -85 -187 -130 -174 -122 -348 -230 -524 -323 -149 -78 -296 -168 -461
-282 -83 -57 -205 -129 -375 -220 -174 -94 -250 -138 -287 -166 -23 -18 -33
-21 -33 -11 0 8 8 21 18 29 24 21 164 102 307 178 66 35 192 111 280 170 295
194 349 227 505 303 85 42 191 99 235 128 218 141 486 324 540 368 33 27 62
47 63 46 2 -2 1 -12 -2 -23z m-2938 2 c28 -19 26 -57 -3 -63 -17 -3 -18 -1 -6
13 11 13 11 19 1 31 -15 18 -20 18 -40 5 -13 -9 -12 -12 4 -25 18 -13 18 -15
3 -15 -26 0 -32 28 -12 50 22 24 24 24 53 4z m163 -84 c82 -77 131 -227 111
-338 l-9 -51 61 -40 c34 -21 103 -65 155 -97 93 -57 263 -187 310 -238 15 -16
21 -30 15 -36 -5 -5 -42 19 -94 64 -101 86 -130 104 -130 81 0 -25 -17 -17
-47 20 -15 20 -91 78 -168 130 -160 109 -175 120 -175 129 0 4 13 5 29 1 28
-6 28 -5 35 44 8 58 -12 155 -45 226 -21 45 -95 128 -154 173 l-30 23 44 -23
c24 -13 65 -43 92 -68z m-780 20 c30 -27 73 -61 96 -75 l43 -26 29 22 c87 64
401 -41 401 -135 0 -16 -6 -26 -15 -26 -9 0 -15 9 -15 25 0 57 -95 108 -239
128 -94 13 -101 13 -113 -4 -23 -33 -59 -33 -108 0 -46 31 -150 124 -150 135
0 15 22 2 71 -44z m2110 2 c-17 -31 -13 -58 14 -112 26 -52 31 -70 16 -70 -11
0 -71 113 -71 134 0 18 41 79 48 72 2 -2 -1 -13 -7 -24z m1559 -30 c72 -43
159 -106 164 -119 10 -25 -75 -99 -228 -200 -398 -261 -683 -470 -835 -612
-60 -56 -156 -136 -213 -178 -56 -42 -134 -99 -173 -128 -38 -29 -98 -71 -132
-93 -33 -23 -90 -66 -124 -97 -64 -55 -95 -67 -105 -40 -3 8 -15 17 -26 21
-19 6 -18 8 13 40 19 19 76 65 129 102 52 37 116 86 141 108 82 72 209 165
288 210 42 24 73 44 69 44 -4 0 -53 -22 -110 -49 -57 -27 -114 -52 -128 -56
-14 -4 -80 -32 -147 -61 -68 -29 -123 -50 -123 -47 0 4 168 85 295 143 69 31
159 85 230 139 85 64 495 338 606 405 159 96 400 255 452 298 l49 42 -40 38
c-23 21 -50 38 -62 38 -30 0 -24 -13 14 -34 44 -24 50 -39 23 -64 -38 -34
-381 -260 -567 -372 -41 -25 -122 -80 -180 -121 -156 -111 -348 -225 -490
-289 -176 -80 -242 -115 -340 -175 -162 -100 -275 -164 -372 -210 -55 -26
-107 -58 -120 -74 -13 -16 -36 -45 -51 -66 -16 -20 -31 -34 -34 -31 -6 6 67
104 103 137 31 28 128 84 119 69 -3 -6 1 -7 9 -4 9 3 14 9 12 13 -3 4 21 20
52 36 31 15 125 68 209 117 147 86 245 135 405 203 165 70 364 202 588 389 69
58 175 136 235 173 129 80 343 237 351 258 4 8 -6 29 -20 46 -29 34 -32 49
-14 67 17 17 27 15 78 -16z m-4363 -4 c-3 -8 -6 -5 -6 6 -1 11 2 17 5 13 3 -3
4 -12 1 -19z m379 -33 c17 -41 38 -37 32 6 -3 18 0 28 6 26 6 -2 12 -17 14
-33 4 -39 -30 -73 -52 -54 -9 6 -18 20 -21 31 -4 10 -13 19 -21 19 -17 0 -19
-47 -1 -53 20 -7 3 -17 -21 -10 -26 6 -28 32 -7 73 22 42 52 39 71 -5z m3884
8 c0 -12 -29 -34 -83 -65 -85 -49 -192 -131 -192 -148 0 -9 -125 -82 -571
-333 -94 -53 -207 -122 -249 -153 -43 -30 -108 -72 -144 -91 -36 -20 -133 -77
-216 -126 -126 -76 -479 -267 -492 -267 -19 0 27 29 140 88 160 85 520 297
712 420 77 49 217 131 310 182 318 174 524 308 735 481 40 34 50 36 50 12z
m-4263 -45 c-3 -7 -5 -2 -5 12 0 14 2 19 5 13 2 -7 2 -19 0 -25z m2736 -37
c24 -39 36 -69 32 -80 -5 -11 -12 -2 -25 33 -11 27 -34 65 -52 84 -27 28 -29
33 -13 30 11 -2 35 -29 58 -67z m1537 44 c0 -6 -207 -142 -248 -164 -13 -7
-26 -11 -28 -8 -3 2 42 32 99 65 58 34 118 72 133 86 28 24 44 32 44 21z
m-1629 -45 c23 0 24 -17 2 -42 -21 -24 -40 -23 -53 3 -15 26 -5 53 16 45 9 -3
24 -6 35 -6z m1159 5 c0 -5 -78 -59 -280 -192 -80 -53 -161 -108 -180 -123
-19 -15 -48 -35 -65 -45 l-30 -17 30 23 c17 13 46 38 65 55 78 68 242 180 385
262 80 46 75 43 75 37z m-2468 -64 c11 -25 31 -74 44 -109 l24 -63 -21 -7
c-19 -7 -17 -10 18 -35 110 -79 546 -497 526 -504 -13 -5 -117 88 -362 322
-70 66 -159 149 -200 185 -46 41 -72 71 -69 80 3 11 11 8 32 -13 16 -16 34
-26 42 -23 10 4 4 25 -26 88 -44 94 -60 145 -41 133 7 -4 22 -28 33 -54z
m-681 33 c11 -13 9 -14 -15 -8 -26 6 -28 5 -21 -17 7 -23 6 -23 -10 -7 -10 9
-15 23 -12 32 8 20 41 21 58 0z m-375 -23 c90 -67 109 -87 96 -104 -10 -12 -9
-15 8 -20 26 -7 36 -33 20 -52 -21 -25 -66 -18 -105 16 -42 38 -45 69 -8 98
25 21 26 22 7 36 -65 50 -134 19 -134 -62 0 -79 45 -147 145 -218 71 -51 224
-129 271 -139 34 -7 130 -64 122 -72 -3 -2 -35 12 -72 31 -37 19 -76 35 -87
35 -39 0 -291 143 -336 192 -55 58 -80 181 -49 237 13 23 51 50 72 51 6 0 29
-13 50 -29z m2430 -30 c-20 -21 -24 -30 -14 -34 9 -3 8 -7 -5 -12 -12 -5 -24
-2 -35 10 -10 10 -13 19 -7 21 6 2 24 13 40 23 44 28 53 25 21 -8z m-1493 5
c8 -20 -2 -26 -41 -26 -34 0 -35 0 -17 20 21 23 50 26 58 6z m1355 -20 c57
-65 50 -96 -31 -138 -21 -10 -40 -25 -44 -33 -9 -25 -23 -16 -23 15 0 27 3 30
30 30 36 0 80 39 80 71 0 11 -15 36 -34 55 -19 19 -28 34 -21 34 7 0 26 -15
43 -34z m-1871 -12 c-8 -57 24 -86 101 -92 64 -5 79 -15 40 -26 -108 -28 -213
67 -155 142 15 20 19 14 14 -24z m1821 10 c36 -25 23 -74 -20 -74 -31 0 -53
72 -25 83 19 8 21 8 45 -9z m-1576 -26 c53 -22 74 -35 64 -40 -15 -9 -106 19
-106 33 0 4 -12 15 -27 23 -47 26 -13 18 69 -16z m348 2 c-10 -18 -60 -30 -60
-14 0 12 34 33 53 34 15 0 16 -3 7 -20z m-196 -41 c-20 -16 -40 -29 -45 -29
-4 0 -22 -12 -39 -26 -17 -15 -33 -24 -36 -21 -13 13 20 46 71 73 31 15 59 32
61 36 3 5 10 6 15 2 5 -3 -7 -19 -27 -35z m-469 11 c4 -7 -2 -9 -19 -4 -21 5
-27 2 -35 -17 -11 -33 4 -73 41 -104 25 -21 27 -25 10 -25 -44 0 -92 81 -77
129 8 27 67 42 80 21z m586 -40 c30 -23 95 -79 146 -126 50 -47 108 -98 129
-115 166 -132 397 -370 377 -390 -7 -7 -37 20 -94 88 -107 125 -153 169 -264
254 -117 90 -130 101 -137 120 -3 8 -58 55 -122 103 -64 48 -116 92 -116 97 0
19 28 8 81 -31z m1116 -37 c25 -27 43 -56 43 -70 0 -33 -5 -29 -30 22 -12 25
-26 45 -32 45 -5 0 1 -17 13 -37 13 -21 28 -46 33 -55 6 -10 17 -18 26 -18 12
0 12 -3 -2 -16 -9 -9 -20 -14 -26 -10 -5 3 -26 39 -47 81 -20 41 -41 77 -46
81 -15 9 -10 24 8 24 9 0 36 -21 60 -47z m-1652 11 c11 -8 28 -14 38 -14 10 0
15 -5 11 -11 -3 -6 -17 -8 -33 -4 -14 4 -37 9 -50 11 -13 1 -33 12 -45 24
l-21 21 40 -7 c22 -4 49 -13 60 -20z m473 -16 c77 -57 218 -184 322 -289 47
-47 114 -107 150 -134 62 -46 119 -102 120 -117 0 -20 -32 -4 -62 31 -18 21
-55 56 -83 76 -44 34 -91 76 -284 252 -25 23 -48 40 -51 38 -4 -2 -27 16 -51
41 -24 25 -65 61 -91 81 -44 32 -62 63 -38 63 6 0 37 -19 68 -42z m-203 -9
c-8 -12 24 -51 36 -43 4 2 17 -1 27 -7 11 -7 28 -9 38 -5 18 7 18 8 0 21 -25
18 -12 39 14 22 25 -15 25 -36 3 -53 -25 -19 -48 -17 -93 6 -47 24 -56 36 -40
55 14 17 24 20 15 4z m556 -54 c29 -31 94 -82 143 -115 108 -70 138 -92 115
-84 -9 3 42 -54 112 -127 71 -72 129 -135 129 -140 0 -23 -28 -3 -94 68 -121
130 -178 187 -244 238 -65 51 -239 191 -256 207 -6 4 1 8 16 8 19 0 41 -16 79
-55z m939 -12 c0 -7 -7 -13 -15 -13 -10 0 -15 10 -15 32 0 30 1 31 15 12 8
-10 15 -25 15 -31z m2200 14 c0 -30 -7 -36 -82 -84 -46 -28 -99 -58 -118 -66
-45 -18 -206 -116 -289 -175 -35 -25 -61 -39 -56 -32 4 7 71 54 149 105 77 51
195 136 261 189 66 53 123 96 128 96 4 0 7 -15 7 -33z m-2467 -95 c52 -66 54
-73 31 -93 -13 -11 -17 -10 -25 4 -6 9 -37 48 -70 86 -32 38 -59 74 -59 80 0
18 28 13 39 -7 17 -32 101 -136 101 -124 0 6 -22 39 -50 73 -27 34 -50 67 -50
73 1 6 8 1 18 -11 9 -11 38 -48 65 -81z m-145 56 c19 -19 14 -30 -8 -18 -11 6
-20 15 -20 20 0 14 14 12 28 -2z m11 -90 c26 -33 51 -53 63 -53 28 0 48 -32
29 -45 -20 -12 -45 2 -111 64 -69 63 -83 83 -76 102 5 13 8 13 29 -1 13 -8 43
-39 66 -67z m-4171 -115 c63 -47 24 -34 -76 26 -55 33 -119 69 -142 81 -43 22
-80 54 -80 69 0 10 239 -132 298 -176z m2482 105 c20 -15 65 -44 100 -63 70
-37 68 -49 -2 -13 -49 25 -109 66 -153 104 -27 23 -27 24 -5 13 14 -7 41 -25
60 -41z m975 -17 c-7 -6 -65 50 -65 63 0 5 16 -5 35 -24 19 -18 32 -36 30 -39z
m3315 32 c-1 -22 -248 -162 -510 -290 -206 -101 -658 -366 -973 -570 -114 -74
-318 -180 -316 -165 0 4 35 24 78 45 42 21 142 79 222 129 79 50 223 140 319
201 265 167 391 238 680 383 146 73 315 164 375 203 109 70 125 78 125 64z
m-1009 -22 c-52 -40 -437 -252 -640 -353 -119 -59 -244 -123 -278 -143 -35
-20 -63 -35 -63 -32 0 11 187 116 405 226 132 66 317 165 410 220 162 94 218
122 166 82z m-2376 -56 c0 -13 -8 -21 -22 -23 -17 -3 -23 2 -23 16 0 10 3 22
7 26 13 13 38 1 38 -19z m80 -7 c-6 -22 -71 -88 -86 -88 -4 0 -17 9 -30 20
l-24 20 28 -11 c24 -11 30 -9 51 10 13 13 27 34 30 47 4 13 13 24 22 24 11 0
14 -6 9 -22z m3355 12 c24 -13 60 -72 60 -98 0 -38 -90 -95 -321 -202 -353
-165 -503 -244 -659 -349 -80 -54 -190 -124 -245 -156 -55 -31 -109 -64 -120
-71 -11 -8 -27 -14 -37 -14 -10 0 -17 -6 -15 -12 1 -7 -3 -12 -10 -11 -31 6
-151 -59 -278 -153 -38 -28 -83 -54 -100 -58 -29 -6 -29 -5 -10 10 40 30 230
147 284 173 110 53 288 156 426 244 241 155 291 183 651 363 193 96 361 185
373 198 18 19 19 25 8 35 -12 9 -44 -4 -158 -62 -163 -84 -398 -191 -509 -232
-117 -43 -194 -85 -356 -193 -169 -112 -332 -208 -579 -341 -93 -51 -179 -101
-191 -112 -24 -22 -34 -24 -34 -6 0 6 86 59 192 116 190 103 418 240 645 387
65 42 168 102 228 134 490 253 690 365 714 397 19 26 17 26 41 13z m-7032 -12
c14 -14 16 -54 2 -63 -13 -8 -50 31 -50 55 0 23 29 27 48 8z m3868 -28 c61
-46 157 -141 149 -148 -3 -3 -35 24 -72 59 -38 35 -86 79 -108 96 -58 46 -32
40 31 -7z m-3792 -9 c12 -11 57 -38 101 -61 93 -49 325 -200 325 -212 0 -4 -3
-8 -6 -8 -8 0 -63 39 -88 62 -11 10 -24 18 -29 18 -5 0 -46 23 -92 50 -46 28
-88 50 -94 50 -6 0 -29 11 -51 25 -22 14 -44 25 -50 25 -13 0 -60 49 -60 61 0
15 23 10 44 -10z m2862 -6 c18 -13 18 -14 -4 -8 -12 3 -25 9 -28 14 -8 14 10
11 32 -6z m577 -4 c-3 -10 0 -28 6 -40 10 -18 9 -21 -7 -21 -12 0 -22 9 -25
21 -5 17 -11 20 -31 15 -39 -10 -31 10 12 27 48 21 51 21 45 -2z m-394 -25
c35 -19 8 -30 -29 -11 -16 8 -30 18 -30 20 0 10 35 4 59 -9z m111 -2 c0 -9 -7
-14 -17 -12 -25 5 -28 28 -4 28 12 0 21 -6 21 -16z m98 -6 c-3 -7 -13 -13 -23
-13 -10 0 -20 6 -22 13 -3 7 5 12 22 12 17 0 25 -5 23 -12z m1002 -59 c0 -7
-25 -19 -40 -19 -13 0 -52 59 -45 69 5 10 85 -37 85 -50z m545 42 c-24 -23
-324 -195 -330 -189 -8 8 12 25 80 65 72 43 256 142 265 143 2 0 -4 -9 -15
-19z m-4817 -33 c53 -20 319 -189 399 -254 36 -30 61 -41 99 -43 6 -1 16 -12
22 -26 15 -33 15 -35 -3 -35 -8 0 -39 -12 -69 -27 l-55 -27 -93 46 c-51 26
-154 77 -228 113 -160 79 -178 94 -162 129 6 13 8 34 5 46 -4 16 0 27 12 36
17 13 17 15 2 32 -23 25 -22 46 1 37 9 -4 41 -16 70 -27z m3332 17 c0 -8 8
-15 17 -15 13 0 14 -3 6 -11 -9 -9 -18 -8 -38 5 -26 17 -26 36 1 36 8 0 14 -7
14 -15z m-212 -13 c3 -9 -2 -13 -14 -10 -9 1 -19 9 -22 16 -3 9 2 13 14 10 9
-1 19 -9 22 -16z m72 3 c0 -8 -7 -15 -15 -15 -16 0 -20 12 -8 23 11 12 23 8
23 -8z m1133 -49 c23 -18 22 -33 -4 -41 -26 -8 -54 16 -46 39 8 19 26 20 50 2z
m182 -29 c17 -13 17 -15 -6 -30 -13 -10 -29 -17 -36 -17 -7 0 -27 -9 -45 -20
-18 -11 -39 -20 -47 -20 -8 0 -23 -8 -33 -17 -14 -13 -21 -14 -30 -5 -18 18
-27 15 -21 -7 4 -15 -23 -36 -139 -108 -79 -49 -190 -116 -248 -148 -58 -32
-179 -100 -270 -150 -498 -279 -916 -485 -985 -485 -11 0 -35 -9 -54 -21 -37
-22 -61 -19 -61 8 0 22 94 72 255 136 61 24 146 62 190 85 107 54 669 366 705
392 15 11 31 20 35 20 9 0 430 231 489 268 28 18 56 32 63 32 7 0 13 4 13 9 0
5 12 12 28 16 15 3 52 21 82 40 60 37 86 42 115 22z m2410 -93 c-21 -15 -288
-149 -589 -294 -105 -50 -198 -102 -243 -137 -40 -31 -73 -59 -73 -62 0 -4 -7
-16 -16 -27 -13 -16 -15 -16 -10 -1 7 23 2 22 -47 -11 -84 -57 -415 -228 -424
-219 -2 3 16 14 39 25 107 50 402 224 483 285 89 67 189 119 515 271 91 42
210 101 265 131 99 53 139 69 100 39z m-6475 -37 c184 -95 220 -117 186 -117
-19 0 -132 54 -156 74 -8 7 -41 27 -72 45 -32 18 -58 34 -58 37 0 10 20 2 100
-39z m4024 35 c3 -5 -15 -23 -39 -40 -37 -26 -45 -29 -56 -16 -6 8 -10 16 -8
17 2 2 20 13 39 25 37 23 56 27 64 14z m-4622 -83 c29 -50 42 -83 41 -108 0
-20 -5 -139 -11 -266 -11 -231 -3 -539 18 -725 5 -47 14 -227 20 -400 6 -173
20 -475 30 -670 21 -378 23 -426 15 -418 -3 2 -25 121 -50 264 -24 142 -49
284 -55 314 -32 173 -73 409 -99 580 -35 231 -46 470 -45 985 0 295 3 348 18
400 23 77 43 115 61 115 8 0 33 -32 57 -71z m698 56 c20 -24 6 -28 -15 -5 -10
11 -13 20 -8 20 6 0 16 -7 23 -15z m40 -50 c14 -19 14 -19 -2 -6 -10 7 -18 18
-18 24 0 6 1 8 3 6 1 -2 9 -13 17 -24z m3744 7 c3 -5 -38 -35 -92 -67 -53 -32
-126 -77 -162 -100 -36 -24 -151 -90 -255 -148 -105 -57 -251 -139 -325 -181
-257 -146 -775 -400 -793 -389 -5 3 13 13 40 23 27 9 157 72 290 138 221 111
300 153 493 262 36 21 153 87 260 147 200 113 318 184 450 272 79 53 86 56 94
43z m-460 -27 c52 -48 32 -72 -144 -168 -74 -41 -209 -116 -300 -167 -222
-126 -566 -299 -670 -339 -47 -18 -119 -51 -161 -72 -66 -35 -80 -38 -104 -29
l-28 11 23 24 c29 31 185 124 281 168 41 19 130 65 199 103 69 37 184 98 255
135 166 84 509 287 555 328 43 37 59 38 94 6z m3074 -3 c-2 -8 -27 -23 -58
-34 -51 -17 -363 -168 -741 -359 -86 -44 -162 -79 -170 -79 -8 1 0 8 16 17 17
8 62 34 100 58 109 66 230 128 215 110 -8 -10 16 -3 66 18 134 58 205 97 198
109 -4 7 -3 8 5 4 6 -4 33 5 59 22 26 16 97 55 157 86 61 32 114 61 119 66 13
13 37 0 34 -18z m-6872 -49 c27 -22 27 -23 4 -12 -14 7 -37 21 -51 33 -15 12
-35 27 -45 34 -11 7 0 3 22 -9 23 -12 55 -32 70 -46z m4384 42 c0 -8 -6 -15
-12 -16 -7 0 -40 -22 -73 -49 -109 -90 -939 -550 -1200 -667 -155 -69 -444
-193 -450 -193 -3 0 -5 5 -5 10 0 6 6 10 14 10 18 0 246 101 422 186 78 38
159 77 180 86 46 21 397 206 539 286 353 196 512 296 543 337 19 27 42 33 42
10z m19 -72 c-22 -22 -49 -31 -49 -15 0 4 9 13 20 20 11 7 20 19 20 28 0 14 3
14 15 4 14 -12 13 -16 -6 -37z m2545 31 c29 -28 13 -74 -25 -74 -9 0 -55 -18
-103 -41 -47 -22 -91 -37 -98 -33 -6 4 -8 3 -5 -3 3 -5 -34 -31 -83 -57 -50
-26 -90 -45 -90 -42 0 3 32 22 70 42 129 67 65 46 -121 -42 -101 -47 -187 -88
-191 -91 -5 -2 -8 0 -8 5 0 7 248 132 538 270 53 25 74 41 78 58 7 28 17 30
38 8z m-6790 -50 c9 -3 16 -11 16 -16 0 -6 -7 -7 -16 -4 -8 3 -12 2 -9 -4 3
-6 -1 -10 -9 -10 -16 0 -22 21 -9 33 8 8 8 8 27 1z m699 -23 c108 -10 105 -9
397 -160 74 -39 187 -92 250 -117 63 -26 186 -78 274 -116 320 -139 343 -153
380 -234 18 -40 25 -67 21 -86 -6 -26 -25 -40 -25 -18 0 18 -92 111 -136 136
-62 37 -102 45 -176 38 -65 -6 -67 -7 -81 -43 -8 -20 -20 -61 -27 -92 -15 -69
-2 -105 50 -132 29 -15 50 -18 128 -13 97 6 107 0 51 -30 -44 -23 -195 -54
-263 -54 -52 0 -69 5 -127 40 -68 40 -109 81 -109 107 0 8 -4 11 -10 8 -5 -3
-10 -21 -10 -40 0 -70 -50 -51 -72 27 -12 43 -19 54 -39 56 -13 2 -32 13 -41
25 -9 12 -19 19 -22 16 -3 -3 0 -40 8 -83 12 -68 12 -78 -2 -83 -26 -11 -49
46 -51 130 -1 39 -4 47 -20 47 -14 0 -23 -14 -35 -52 -9 -31 -14 -39 -10 -18
13 76 18 71 -81 74 -65 1 -102 8 -135 22 -53 24 -234 151 -269 188 -14 14 -28
26 -32 26 -13 0 -21 -40 -11 -53 11 -14 24 -77 16 -77 -3 0 -10 14 -16 30 -11
33 -52 60 -90 60 -21 0 -23 -4 -20 -38 7 -68 -4 -72 -206 -72 -97 0 -205 5
-239 10 -40 7 -83 7 -120 1 -37 -6 -62 -6 -68 0 -5 6 -10 34 -10 62 1 42 9 67
38 118 41 75 93 122 187 169 36 18 128 67 205 109 227 124 283 135 548 112z
m3472 0 c9 -15 -145 -144 -221 -187 -38 -21 -103 -59 -144 -84 -41 -25 -137
-79 -212 -118 -75 -39 -175 -94 -223 -122 -110 -65 -405 -211 -565 -279 -139
-59 -263 -113 -269 -118 -3 -2 5 -13 17 -25 l22 -22 50 21 c69 29 63 18 -7
-14 l-56 -26 -24 27 c-13 15 -23 34 -23 41 0 18 45 41 170 89 181 70 531 235
671 316 36 21 135 75 220 120 222 117 453 264 519 331 58 60 65 65 75 50z
m143 -20 c2 -13 -1 -28 -7 -34 -16 -16 -13 -27 4 -21 26 10 16 -12 -11 -25
-37 -16 -41 -8 -21 45 9 26 14 51 11 56 -4 6 -1 9 7 6 8 -3 16 -15 17 -27z
m-4443 -53 c49 -19 85 -44 85 -58 0 -4 -33 -23 -74 -44 -54 -26 -90 -53 -129
-96 l-54 -60 -6 97 c-4 54 -10 126 -13 160 l-7 62 74 -21 c41 -11 97 -29 124
-40z m4760 30 c-58 -30 -231 -108 -241 -108 -2 0 -4 4 -4 8 0 5 33 22 73 37
39 16 104 43 142 61 89 42 109 43 30 2z m-4541 9 c18 -13 18 -14 1 -21 -10 -3
-24 -1 -31 5 -32 26 -3 40 30 16z m4932 4 c-3 -5 -45 -25 -93 -46 -186 -80
-484 -236 -529 -277 -49 -45 -58 -40 -16 9 40 48 434 246 640 322 2 0 1 -3 -2
-8z m-795 -19 c-26 -48 -137 -127 -245 -174 -61 -27 -148 -73 -194 -104 -46
-30 -152 -91 -235 -136 -84 -44 -177 -95 -207 -113 -51 -31 -136 -69 -100 -44
32 21 251 144 360 202 63 33 147 82 185 108 77 51 246 139 268 139 8 0 46 32
85 70 69 68 103 90 83 52z m2567 -4 c-3 -7 -149 -85 -325 -174 -176 -88 -379
-197 -449 -241 -176 -110 -268 -158 -339 -178 -33 -10 -111 -38 -173 -62 -64
-26 -119 -42 -129 -39 -26 10 -8 21 142 85 279 118 416 182 580 274 70 39 487
259 590 311 73 36 110 45 103 24z m-558 -38 c-19 -11 -39 -19 -45 -19 -5 0 6
8 25 19 19 11 40 19 45 19 6 0 -6 -8 -25 -19z m-6210 -15 c0 -2 -9 -9 -20 -15
-24 -13 -50 -2 -29 11 15 9 49 12 49 4z m4204 -20 c11 -30 -14 -44 -229 -131
-95 -39 -214 -100 -292 -152 -13 -8 -23 -12 -23 -9 0 6 126 90 166 110 17 9
77 34 133 56 126 51 212 99 219 123 5 22 18 23 26 3z m100 -27 c-31 -25 -45
-29 -42 -13 3 11 61 45 67 39 2 -2 -9 -14 -25 -26z m-1662 -60 c2 -29 3 -55 1
-57 -4 -6 -42 42 -49 63 -4 13 0 24 12 33 28 21 32 17 36 -39z m1678 33 c-12
-24 -29 -35 -38 -26 -4 3 4 15 18 25 31 24 33 24 20 1z m2030 -5 c0 -3 -73
-43 -162 -89 -90 -46 -210 -109 -268 -140 -171 -91 -587 -267 -629 -267 -14 0
109 56 384 175 55 23 181 83 280 132 168 84 387 191 393 192 1 1 2 -1 2 -3z
m-2145 -52 c-11 -8 -92 -51 -180 -96 -88 -44 -218 -113 -290 -153 -71 -40
-163 -89 -204 -110 -41 -20 -120 -63 -175 -95 -56 -31 -195 -105 -310 -165
-116 -59 -253 -132 -305 -163 -165 -95 -181 -104 -181 -95 0 11 106 81 195
129 39 20 129 70 200 109 72 39 175 95 231 123 55 28 176 92 270 143 93 50
293 155 444 232 151 77 279 144 285 148 5 5 16 9 25 9 12 -1 11 -4 -5 -16z
m1865 -24 c-8 -5 -19 -10 -25 -10 -5 0 -3 5 5 10 8 5 20 10 25 10 6 0 3 -5 -5
-10z m-1831 -46 c-18 -22 -114 -84 -130 -84 -13 0 21 28 90 76 48 33 63 36 40
8z m1711 -11 c-36 -20 -126 -65 -200 -100 -254 -121 -395 -192 -447 -227 -29
-19 -55 -31 -58 -26 -10 16 227 142 428 229 61 26 159 73 217 104 58 31 110
57 115 57 6 0 -19 -17 -55 -37z m-1243 -36 l45 -43 -93 -54 c-138 -79 -361
-227 -464 -309 -200 -159 -251 -196 -397 -290 -196 -126 -380 -232 -537 -309
l-124 -60 -52 43 c-29 23 -80 59 -114 80 -34 21 -58 41 -54 45 4 3 42 21 83
40 89 39 360 174 480 237 74 40 423 248 607 363 81 50 122 72 214 113 41 19
124 68 185 110 134 94 154 97 221 34z m-463 -8 c-3 -6 -25 -19 -48 -28 -22
-10 -77 -35 -121 -56 -280 -132 -373 -179 -447 -227 -71 -46 -168 -101 -303
-171 -16 -9 -86 -43 -155 -75 -105 -51 -208 -112 -189 -112 3 0 39 19 80 43
42 23 104 55 140 71 35 16 102 47 149 68 137 63 79 28 -120 -74 -102 -52 -236
-129 -299 -171 -112 -76 -115 -78 -143 -64 l-30 14 87 54 c48 30 114 72 148
93 34 22 134 76 222 121 165 84 343 180 488 263 158 90 425 217 545 261 2 0 0
-4 -4 -10z m54 -61 c-2 -6 -51 -33 -109 -58 -93 -42 -257 -135 -409 -232 -59
-38 -197 -113 -520 -283 -113 -60 -249 -135 -303 -167 -55 -33 -101 -57 -104
-55 -13 13 273 177 627 360 80 41 171 90 202 108 31 19 142 84 245 145 103 62
217 124 253 139 36 15 74 34 85 41 24 17 38 18 33 2z m-648 -3 c0 -2 -10 -9
-22 -15 -22 -11 -22 -10 -4 4 21 17 26 19 26 11z m1168 -35 c12 -18 22 -45 22
-60 0 -30 -24 -58 -35 -40 -4 6 -18 1 -38 -14 -18 -13 -133 -81 -257 -151
-124 -70 -315 -184 -425 -255 -281 -178 -382 -239 -520 -308 -66 -33 -190 -97
-275 -144 -203 -109 -230 -121 -230 -99 0 5 16 15 36 21 20 7 177 86 349 176
299 156 453 245 630 366 44 30 130 83 190 117 209 119 463 273 499 303 35 29
48 69 27 83 -5 3 -38 -13 -73 -35 -35 -23 -122 -76 -194 -119 -73 -44 -165
-101 -205 -128 -85 -57 -159 -101 -144 -86 28 27 315 219 420 280 164 95 164
96 171 116 8 24 25 17 52 -23z m492 19 c-36 -29 -147 -104 -135 -91 14 15 148
112 155 112 3 0 -6 -10 -20 -21z m-1710 -14 c0 -2 -10 -9 -22 -15 -22 -11 -22
-10 -4 4 21 17 26 19 26 11z m-50 -29 c0 -7 -175 -99 -509 -268 -172 -88 -335
-174 -361 -191 -58 -40 -170 -142 -170 -156 0 -18 -28 -13 -124 23 -90 34
-495 229 -466 224 8 -1 25 2 38 6 26 9 140 -38 378 -155 77 -38 147 -69 154
-69 8 0 35 20 60 44 73 71 193 145 400 246 107 52 285 141 395 197 216 110
205 105 205 99z m380 -50 c0 -2 -30 -21 -67 -42 -38 -20 -146 -82 -242 -136
-95 -55 -175 -97 -178 -94 -3 2 17 16 44 29 26 14 73 42 103 63 56 38 319 184
333 184 4 0 7 -2 7 -4z m1306 -11 c-11 -8 -25 -15 -30 -15 -6 1 0 7 14 15 32
19 40 18 16 0z m52 -18 c-29 -24 -98 -66 -86 -52 10 11 102 74 108 74 3 0 -7
-10 -22 -22z m-98 -1 c0 -5 -69 -46 -78 -46 -6 1 69 50 76 50 1 0 2 -2 2 -4z
m-3382 -48 c55 -26 152 -124 152 -153 0 -31 -28 -51 -79 -59 -34 -5 -48 -3
-62 10 -14 13 -28 15 -59 10 -44 -7 -104 5 -134 27 -37 27 -17 116 36 163 41
38 68 38 146 2z m-1875 6 c39 -9 148 -47 242 -84 234 -94 368 -139 666 -225
358 -104 451 -134 639 -208 216 -85 413 -151 695 -233 l230 -67 170 1 c94 1
178 -1 188 -4 25 -8 21 -23 -18 -81 -25 -37 -35 -63 -35 -91 0 -50 21 -69 105
-97 l64 -22 -42 -40 c-57 -56 -95 -72 -185 -83 -42 -5 -106 -16 -142 -24 -93
-21 -237 -34 -451 -41 -214 -6 -239 -12 -414 -93 -175 -82 -181 -82 -364 37
-80 51 -172 108 -205 126 -348 185 -530 275 -686 341 -102 43 -273 122 -381
175 -226 112 -202 83 -245 289 -37 183 -60 341 -54 374 4 25 13 33 55 47 63
23 79 23 168 3z m2107 1 c-14 -17 -14 -17 14 -32 14 -8 25 -8 37 0 25 15 38
-1 15 -18 -10 -8 -15 -18 -11 -24 11 -18 -6 -12 -57 20 -61 39 -65 69 -10 69
21 0 23 -2 12 -15z m2813 -7 c-13 -12 -25 -19 -29 -15 -10 10 16 37 34 37 13
0 12 -4 -5 -22z m228 -76 c24 -11 57 -32 73 -47 39 -36 24 -48 -79 -69 -49
-10 -94 -27 -118 -43 -63 -44 -127 -123 -168 -207 -48 -98 -51 -149 -14 -212
30 -51 26 -82 -13 -111 -15 -11 -162 -138 -327 -283 -165 -144 -318 -275 -340
-290 -47 -32 -80 -45 -400 -155 -247 -85 -352 -125 -394 -152 -26 -17 -24 -17
-296 7 -156 14 -301 2 -430 -35 -87 -25 -208 -34 -220 -15 -3 5 1 37 9 72 11
50 22 69 48 91 68 57 341 178 547 242 30 9 111 45 180 79 69 35 165 78 213 95
48 18 124 52 168 77 131 72 308 159 426 208 97 41 120 55 178 112 36 36 87 94
113 127 71 94 205 247 254 292 46 42 281 193 353 226 52 24 170 19 237 -9z
m-2882 -34 c51 -56 44 -60 -25 -17 -62 40 -59 36 -44 54 16 20 17 19 69 -37z
m209 -30 c4 -22 -68 -61 -88 -48 -12 7 -9 15 15 40 32 33 68 37 73 8z m3375
-26 c49 -47 73 -93 81 -158 7 -48 6 -51 -21 -63 -15 -7 -120 -65 -233 -129
-316 -178 -332 -187 -426 -226 -101 -41 -130 -45 -118 -18 4 9 22 61 40 114
17 54 42 112 55 130 35 50 207 225 269 272 137 106 148 111 235 113 79 1 80 1
118 -35z m-4646 6 c-3 -8 -6 -5 -6 6 -1 11 2 17 5 13 3 -3 4 -12 1 -19z m893
3 c0 -13 133 -75 219 -102 49 -16 76 -30 79 -42 6 -23 50 -33 74 -18 11 7 21
11 22 9 26 -40 36 -59 36 -69 0 -17 -64 -4 -98 19 -15 11 -58 31 -97 45 -92
33 -191 74 -237 98 -35 18 -37 21 -26 44 11 24 28 34 28 16z m-883 -58 c-3
-10 -5 -4 -5 12 0 17 2 24 5 18 2 -7 2 -21 0 -30z m1283 -3 c8 -15 8 -20 -3
-20 -7 0 -28 -11 -47 -25 -54 -40 -70 -13 -21 36 34 34 56 37 71 9z m-1273
-42 c-3 -8 -6 -5 -6 6 -1 11 2 17 5 13 3 -3 4 -12 1 -19z m164 5 c13 -16 12
-17 -3 -4 -17 13 -22 21 -14 21 2 0 10 -8 17 -17z m3730 -12 c16 -16 29 -38
29 -49 0 -58 -205 -262 -263 -262 -49 0 30 194 116 284 29 31 61 56 71 56 9 0
31 -13 47 -29z m-621 15 c0 -2 -30 -22 -67 -44 -38 -22 -125 -82 -195 -133
-221 -163 -564 -362 -893 -519 -137 -65 -230 -101 -209 -80 5 5 33 18 61 29
87 34 509 253 648 336 72 42 208 130 303 194 148 99 340 221 349 221 2 0 3 -2
3 -4z m727 -12 c8 -22 -18 -68 -74 -129 -50 -55 -48 -45 6 29 26 36 34 58 33
82 -2 25 1 34 13 34 9 0 18 -7 22 -16z m-3248 -10 c14 -10 19 -20 13 -26 -11
-11 -94 20 -86 33 8 14 47 10 73 -7z m208 -100 c81 -42 188 -91 237 -110 98
-37 120 -52 110 -77 -11 -31 -50 -31 -111 0 -32 15 -61 31 -64 36 -3 4 -39 23
-80 43 -103 49 -269 154 -269 171 0 24 26 14 177 -63z m-312 56 c-3 -5 -14
-10 -23 -10 -15 0 -15 2 -2 10 20 13 33 13 25 0z m-85 -68 c41 -21 159 -82
262 -135 103 -53 194 -97 202 -97 19 0 21 -16 4 -23 -7 -2 -67 24 -133 58 -66
34 -193 99 -282 144 -90 45 -163 84 -163 86 0 14 43 0 110 -33z m118 -142
c165 -80 294 -146 286 -148 -27 -6 -604 272 -604 291 0 11 -26 23 318 -143z
m2457 130 c-3 -5 -16 -15 -28 -21 -19 -9 -19 -8 3 10 28 23 34 26 25 11z
m-1718 -189 c14 -7 23 -14 20 -17 -3 -3 -19 2 -36 11 -21 10 -31 23 -30 38 l0
22 11 -21 c5 -12 21 -27 35 -33z m177 2 c39 -21 76 -43 81 -49 6 -7 27 -17 48
-22 32 -9 237 -157 237 -172 0 -3 -16 -15 -35 -28 -34 -21 -35 -22 -35 -2 0
29 -50 81 -148 150 -84 61 -232 140 -260 140 -7 0 -10 5 -7 10 11 18 46 10
119 -27z m-403 -11 c47 -17 78 -42 50 -42 -24 0 -131 56 -131 69 0 10 3 11 14
2 7 -6 37 -19 67 -29z m1779 33 c0 -2 -10 -9 -22 -15 -22 -11 -22 -10 -4 4 21
17 26 19 26 11z m-50 -29 c0 -2 -18 -15 -40 -30 -22 -14 -40 -24 -40 -22 0 5
71 56 77 56 2 0 3 -2 3 -4z m-1799 -56 c24 -11 36 -20 26 -20 -18 0 -77 27
-77 35 0 8 5 6 51 -15z m444 -30 c44 -22 100 -58 125 -81 l45 -40 -45 26 c-44
26 -179 92 -232 113 -16 7 -28 17 -28 23 0 17 45 3 135 -41z m1265 26 c0 -7
-195 -128 -295 -183 -228 -127 -257 -142 -246 -129 6 7 53 35 103 62 51 27
169 95 263 151 178 107 175 105 175 99z m-1362 -63 c18 -3 34 -9 37 -13 8 -12
-86 7 -98 20 -10 10 -8 12 8 6 11 -4 35 -10 53 -13z m-2523 -154 c250 -79 522
-178 494 -179 -4 0 -80 17 -170 39 -90 21 -220 51 -289 65 -128 27 -266 71
-276 88 -3 5 -3 15 0 23 10 27 77 17 241 -36z m2868 -27 c17 -29 18 -38 7 -82
-23 -94 -69 -121 -143 -84 -72 37 -74 48 -26 146 22 46 24 47 60 42 23 -4 39
-2 44 5 12 20 38 8 58 -27z m58 -89 c-9 -15 -10 -13 -11 13 0 17 3 34 8 38 11
12 14 -32 3 -51z"/>
<path d="M5782 6539 c2 -6 8 -10 13 -10 5 0 11 4 13 10 2 6 -4 11 -13 11 -9 0
-15 -5 -13 -11z"/>
<path d="M5154 6279 c-8 -13 28 -64 46 -64 7 0 18 8 24 18 9 15 7 22 -13 38
-26 21 -47 24 -57 8z"/>
<path d="M8885 6126 c-28 -24 -47 -47 -44 -50 3 -3 27 17 54 44 61 62 56 65
-10 6z"/>
<path d="M4404 6106 c-24 -18 -16 -26 33 -33 58 -8 169 -93 121 -93 -7 0 -24
12 -37 25 -13 14 -31 25 -42 25 -10 0 -42 9 -71 21 -34 13 -65 19 -87 15 -29
-4 -127 -48 -171 -75 -8 -5 -76 -35 -150 -66 -74 -32 -155 -68 -180 -80 -68
-34 -202 -92 -230 -100 -54 -16 -329 -129 -453 -187 -142 -66 -180 -88 -242
-137 -23 -19 -47 -30 -57 -28 -22 6 -24 -9 -2 -17 33 -13 58 -5 97 30 22 20
88 59 146 86 58 27 151 71 206 98 55 27 154 68 220 90 66 23 147 55 180 71 33
16 65 29 72 29 7 0 31 13 55 29 24 15 70 38 103 50 33 13 64 26 70 31 13 11
82 -79 91 -118 5 -20 -5 -11 -40 36 -25 34 -50 62 -56 62 -23 0 -18 -25 15
-79 l37 -60 -17 -46 c-11 -28 -33 -57 -56 -76 l-39 -31 -42 42 c-24 23 -69 55
-100 71 l-58 29 -56 -20 c-66 -23 -73 -27 -51 -35 8 -4 30 1 47 10 40 21 69
14 116 -27 36 -32 38 -43 20 -108 -3 -8 -5 -18 -5 -22 -1 -5 -6 -8 -12 -8 -8
0 -8 4 0 14 10 12 6 12 -23 2 -19 -7 -43 -19 -53 -28 -10 -8 -53 -34 -95 -56
l-77 -41 -20 33 c-39 63 -37 87 14 208 6 15 -1 15 -64 -7 -95 -32 -96 -33 -73
-59 11 -11 32 -46 47 -76 15 -30 37 -68 48 -84 l20 -29 -24 -20 c-13 -10 -45
-30 -70 -43 -38 -19 -56 -22 -97 -17 -47 5 -53 3 -81 -25 -37 -36 -38 -49 -8
-93 26 -40 98 -79 145 -79 46 0 101 28 115 57 9 20 7 27 -9 43 -22 22 -139 61
-160 53 -22 -8 -17 -29 12 -52 32 -25 51 -26 75 -5 22 20 49 12 49 -14 0 -71
-183 -59 -210 13 -21 55 19 86 108 84 52 -1 71 4 143 41 46 23 88 48 94 56 13
17 117 68 182 88 28 10 71 32 95 51 53 40 244 155 258 155 6 0 18 4 28 9 64
35 270 131 279 131 6 0 26 14 43 31 17 17 34 29 37 25 10 -10 -45 -83 -74 -99
-204 -106 -357 -177 -379 -177 -8 0 -14 -4 -14 -10 0 -17 20 -12 120 29 112
45 268 127 317 165 19 16 45 52 58 82 13 29 38 72 56 94 l33 40 -38 39 c-42
43 -107 81 -140 81 -12 0 -31 -6 -42 -14z m-82 -106 c14 -10 31 -32 37 -48 8
-18 23 -32 43 -38 32 -9 58 -38 45 -50 -4 -4 -17 2 -30 14 -33 31 -38 28 -31
-18 5 -33 4 -40 -10 -40 -11 0 -16 9 -16 28 -1 53 -69 170 -91 156 -5 -3 -9 0
-9 5 0 18 35 13 62 -9z m59 10 c19 -11 54 -68 46 -76 -2 -2 -18 12 -36 31 -17
19 -38 35 -47 35 -8 0 -12 5 -9 10 8 13 21 13 46 0z m172 -82 c-9 -16 -32 -7
-57 23 -43 51 -31 65 18 22 24 -21 42 -41 39 -45z m-323 59 c0 -1 16 -41 35
-87 19 -46 35 -87 35 -91 0 -7 -86 -69 -95 -69 -2 0 -1 9 2 20 7 26 -10 71
-48 130 -32 50 -49 56 -49 19 0 -15 -5 -19 -17 -15 -10 3 -24 2 -31 -3 -10 -6
-9 -13 6 -32 40 -53 83 -142 74 -151 -16 -16 -29 -1 -47 51 -8 26 -29 69 -45
95 -17 26 -30 49 -30 51 0 3 12 5 27 5 17 0 35 10 48 27 l22 26 30 -22 c17
-13 48 -49 69 -82 21 -32 41 -59 46 -59 4 0 8 14 8 31 0 23 -12 46 -46 85 -46
54 -49 74 -13 74 10 0 19 -1 19 -3z m-156 -274 c4 -9 0 -23 -9 -32 -13 -14
-15 -12 -15 17 0 34 14 43 24 15z m-253 -166 c-10 -9 -11 -8 -5 6 3 10 9 15
12 12 3 -3 0 -11 -7 -18z m-456 -317 c3 -5 2 -10 -4 -10 -5 0 -13 5 -16 10 -3
6 -2 10 4 10 5 0 13 -4 16 -10z"/>
<path d="M3883 5828 c-12 -6 -27 -23 -33 -39 -12 -27 -13 -27 -36 -12 -22 14
-24 14 -24 -4 0 -11 6 -28 14 -39 15 -19 15 -19 30 1 12 15 15 16 16 5 0 -9
16 -42 36 -73 35 -57 37 -58 56 -40 54 49 58 106 13 175 -27 40 -36 43 -72 26z"/>
<path d="M4533 5745 c0 -22 2 -30 4 -17 2 12 2 30 0 40 -3 9 -5 -1 -4 -23z"/>
<path d="M3535 5626 c-44 -76 -43 -160 3 -185 20 -10 27 -7 100 42 45 29 92
108 92 152 0 24 -2 25 -62 23 -35 -1 -73 2 -85 6 -18 7 -25 1 -48 -38z"/>
<path d="M3750 5593 c-8 -21 -16 -41 -18 -45 -2 -5 4 -8 12 -8 23 0 42 45 30
71 -9 19 -11 17 -24 -18z"/>
<path d="M3972 5544 c-29 -20 -28 -44 2 -44 28 0 51 24 42 45 -7 19 -16 19
-44 -1z"/>
<path d="M4143 5510 c-35 -15 -46 -45 -28 -80 27 -53 95 -50 131 5 17 26 16
27 -7 50 -28 28 -65 38 -96 25z m75 -52 c4 -34 -28 -47 -64 -23 -20 13 -23 19
-14 36 9 15 19 19 43 17 26 -2 33 -8 35 -30z"/>
<path d="M3876 5481 c-9 -10 -14 -25 -10 -35 5 -13 -3 -20 -35 -33 -22 -9 -43
-25 -47 -36 -10 -33 62 -111 73 -79 4 10 8 10 19 1 12 -10 18 -9 31 4 13 13
14 19 3 31 -16 21 -37 20 -48 -1 -12 -20 -42 -11 -42 13 0 9 23 36 50 61 52
47 59 63 37 82 -11 8 -18 6 -31 -8z"/>
<path d="M4025 5450 c3 -5 10 -10 16 -10 5 0 9 5 9 10 0 6 -7 10 -16 10 -8 0
-12 -4 -9 -10z"/>
<path d="M3977 5443 c-18 -17 -5 -42 24 -48 19 -4 34 -16 39 -31 11 -28 22
-30 41 -8 12 14 9 20 -16 40 -17 14 -37 31 -46 39 -17 16 -32 19 -42 8z"/>
<path d="M3595 5336 c6 -28 3 -36 -16 -50 -16 -11 -26 -12 -35 -5 -7 6 -19 7
-26 3 -7 -5 -25 -7 -40 -5 -31 3 -38 -16 -10 -26 9 -4 20 -11 24 -17 5 -8 13
-8 26 0 9 6 32 15 48 18 60 13 94 72 62 104 -24 24 -39 14 -33 -22z"/>
<path d="M3970 5355 c6 -8 9 -23 5 -34 -7 -24 -64 -61 -92 -61 -12 0 -27 -10
-36 -22 l-15 -23 -36 34 c-33 32 -37 34 -61 21 -31 -16 -41 -50 -28 -93 13
-47 41 -46 104 6 30 24 66 47 80 50 35 9 88 46 113 79 20 28 20 28 0 43 -26
20 -51 20 -34 0z"/>
<path d="M4315 5292 c-63 -7 -157 -45 -214 -87 -73 -54 -97 -106 -87 -188 19
-146 152 -256 315 -259 114 -3 269 28 328 64 47 28 102 96 114 141 28 106 -83
263 -223 313 -40 14 -172 23 -233 16z m66 -75 c-13 -13 -15 1 -4 30 7 17 8 17
11 -1 2 -10 -1 -23 -7 -29z m-93 11 c8 -8 15 -8 28 3 15 12 17 12 12 -1 -7
-21 -30 -23 -53 -6 -11 9 -15 16 -9 16 5 0 15 -5 22 -12z m183 -10 c10 -13 18
-27 19 -32 0 -6 -6 -1 -14 9 -8 11 -19 16 -30 12 -18 -7 -19 -6 -10 17 8 21
12 20 35 -6z m60 -21 c-16 -16 -26 0 -10 19 9 11 15 12 17 4 2 -6 -1 -17 -7
-23z m-326 3 c3 -5 1 -10 -4 -10 -6 0 -11 5 -11 10 0 6 2 10 4 10 3 0 8 -4 11
-10z m35 -36 c0 -8 -4 -14 -10 -14 -5 0 -10 9 -10 21 0 11 5 17 10 14 6 -3 10
-13 10 -21z m362 -6 c-13 -13 -32 -2 -32 18 0 12 4 13 21 3 14 -7 18 -14 11
-21z m33 22 c3 -5 1 -10 -4 -10 -6 0 -11 5 -11 10 0 6 2 10 4 10 3 0 8 -4 11
-10z m-537 -40 c-10 -29 -28 -50 -28 -33 0 15 25 63 32 63 4 0 2 -14 -4 -30z
m51 1 c6 -10 22 -22 37 -25 25 -7 26 -10 19 -44 -5 -20 -8 -54 -9 -75 0 -30
-3 -35 -10 -25 -6 8 -19 17 -28 21 -26 9 -22 26 8 37 36 14 30 57 -11 80 -16
9 -31 24 -33 33 -5 23 15 21 27 -2z m484 -102 c18 -31 20 -43 12 -75 -6 -20
-16 -40 -24 -42 -11 -4 -12 0 -6 14 21 50 17 70 -26 125 -24 29 -51 60 -61 67
-10 7 -18 18 -18 24 0 18 101 -75 123 -113z m-185 93 c28 -22 38 -90 12 -83
-29 8 -160 13 -185 7 -29 -7 -33 -24 -7 -33 9 -3 29 -19 44 -35 33 -34 57 -36
87 -4 12 12 40 29 63 37 37 12 42 11 54 -6 21 -29 17 -51 -16 -79 -69 -58
-178 -50 -247 19 -38 38 -41 61 -13 115 36 71 152 105 208 62z m249 -34 c-18
-12 -33 -10 -20 3 6 6 9 19 6 28 -3 12 -1 11 11 -3 12 -16 13 -22 3 -28z
m-577 -18 c0 -5 -4 -10 -10 -10 -5 0 -10 5 -10 10 0 6 5 10 10 10 6 0 10 -4
10 -10z m602 -62 c-7 -7 -12 -8 -12 -2 0 6 3 14 7 17 3 4 9 5 12 2 2 -3 -1
-11 -7 -17z m-628 -3 c-4 -8 -10 -15 -15 -15 -4 0 -6 7 -3 15 4 8 10 15 15 15
4 0 6 -7 3 -15z m26 -56 c0 -5 -9 -9 -20 -9 -19 0 -26 11 -14 23 8 8 34 -3 34
-14z m600 1 c0 -5 -2 -10 -4 -10 -3 0 -8 5 -11 10 -3 6 -1 10 4 10 6 0 11 -4
11 -10z m-515 -29 c7 -12 -12 -24 -25 -16 -11 7 -4 25 10 25 5 0 11 -4 15 -9z
m-79 -28 c-10 -10 -19 5 -10 18 6 11 8 11 12 0 2 -7 1 -15 -2 -18z m480 6 c3
-6 2 -15 -4 -21 -7 -7 -14 -3 -21 11 -10 17 -9 21 3 21 8 0 18 -5 22 -11z m84
-9 c0 -5 -4 -10 -10 -10 -5 0 -10 5 -10 10 0 6 5 10 10 10 6 0 10 -4 10 -10z
m-460 -20 c0 -5 -5 -10 -11 -10 -5 0 -7 5 -4 10 3 6 8 10 11 10 2 0 4 -4 4
-10z m50 1 c0 -5 -7 -14 -15 -21 -12 -10 -15 -10 -15 2 0 8 3 18 7 21 9 10 23
9 23 -2z m-130 -11 c0 -5 -2 -10 -4 -10 -3 0 -8 5 -11 10 -3 6 -1 10 4 10 6 0
11 -4 11 -10z m390 -5 c0 -17 -2 -18 -25 -9 -13 5 -14 8 -3 15 19 13 28 11 28
-6z m-220 -18 c0 -14 -20 -37 -32 -37 -4 0 -2 11 4 25 12 27 28 34 28 12z
m154 -3 c9 -24 7 -28 -9 -14 -17 14 -20 30 -6 30 5 0 12 -7 15 -16z m166 6 c0
-5 -4 -10 -10 -10 -5 0 -10 5 -10 10 0 6 5 10 10 10 6 0 10 -4 10 -10z m-445
-10 c-3 -5 -10 -10 -16 -10 -5 0 -9 5 -9 10 0 6 7 10 16 10 8 0 12 -4 9 -10z
m199 2 c4 -7 -27 -42 -38 -42 -2 0 1 11 7 25 12 26 22 31 31 17z m196 -12 c0
-5 -4 -10 -10 -10 -5 0 -10 5 -10 10 0 6 5 10 10 10 6 0 10 -4 10 -10z m-350
-20 c0 -5 -4 -10 -10 -10 -5 0 -10 5 -10 10 0 6 5 10 10 10 6 0 10 -4 10 -10z"/>
<path d="M4266 4991 c-9 -14 31 -50 83 -73 41 -19 45 -19 88 -3 54 21 51 29
-7 16 -52 -11 -83 -2 -126 40 -19 18 -34 26 -38 20z"/>
<path d="M5784 4959 c-9 -16 12 -33 31 -25 14 5 15 9 5 21 -15 18 -26 19 -36
4z"/>
<path d="M5711 4916 c-16 -19 2 -30 35 -22 23 6 34 26 15 26 -5 0 -16 2 -24 5
-7 3 -19 -1 -26 -9z"/>
<path d="M5630 4875 c-7 -9 -10 -18 -6 -22 9 -10 59 10 64 25 6 18 -43 15 -58
-3z"/>
<path d="M5537 4839 c-24 -14 -12 -29 22 -29 29 0 57 21 44 33 -10 10 -46 8
-66 -4z"/>
<path d="M5435 4810 c-9 -15 13 -40 37 -40 17 0 36 25 27 35 -12 11 -58 15
-64 5z"/>
<path d="M5785 4800 c-10 -16 47 -101 65 -98 26 5 22 32 -11 71 -32 38 -43 44
-54 27z"/>
<path d="M5324 4769 c-4 -7 1 -16 10 -21 9 -5 16 -18 16 -29 0 -17 -6 -20 -37
-17 -44 4 -58 32 -21 41 17 5 20 9 11 18 -9 9 -18 8 -37 -5 -31 -20 -33 -41
-6 -56 15 -8 19 -17 15 -31 -9 -27 16 -25 52 4 15 13 36 26 46 30 19 7 22 29
7 58 -12 21 -45 26 -56 8z"/>
<path d="M4992 4754 c-27 -18 -29 -55 -4 -77 25 -22 44 -21 76 4 30 24 33 49
8 72 -23 21 -51 22 -80 1z m58 -19 c18 -21 5 -47 -22 -43 -26 3 -37 36 -16 49
18 12 24 11 38 -6z"/>
<path d="M4902 4708 c-18 -18 -14 -32 13 -45 22 -10 25 -9 25 7 0 23 -10 50
-19 50 -4 0 -12 -5 -19 -12z"/>
<path d="M4793 4653 c-18 -7 -16 -24 6 -50 22 -26 29 -27 68 -12 l28 11 -27
14 c-16 8 -28 21 -28 29 0 15 -22 18 -47 8z"/>
<path d="M4925 4635 c-34 -28 -20 -33 26 -10 16 9 27 20 24 25 -9 14 -17 12
-50 -15z"/>
<path d="M5131 4624 c-21 -18 -43 -25 -72 -26 l-41 0 25 -26 c23 -23 28 -24
55 -13 38 16 95 68 87 81 -10 15 -21 12 -54 -16z"/>
<path d="M5446 4631 c-5 -8 22 -48 61 -88 16 -18 43 -16 43 2 0 15 -78 95 -92
95 -4 0 -9 -4 -12 -9z"/>
<path d="M4670 4620 c-8 -5 -12 -11 -10 -12 3 -2 17 -12 33 -21 36 -23 34 -36
-16 -72 -58 -42 -58 -63 -1 -114 44 -38 84 -53 84 -31 0 5 -20 23 -44 39 -68
47 -68 61 1 104 23 14 44 31 47 36 6 10 -58 81 -72 81 -4 0 -14 -4 -22 -10z"/>
<path d="M5378 4609 c-16 -9 -16 -12 2 -42 11 -18 20 -49 20 -70 0 -45 15 -42
55 13 25 34 25 35 5 38 -11 2 -27 16 -35 32 -19 36 -26 41 -47 29z"/>
<path d="M4516 4548 c-19 -38 -19 -33 0 -52 21 -21 28 -20 58 8 31 28 32 36 6
59 -29 25 -47 21 -64 -15z"/>
<path d="M4615 4570 c-4 -7 -3 -16 3 -22 14 -14 57 -6 57 12 0 18 -50 26 -60
10z"/>
<path d="M5143 4461 c-15 -16 -17 -31 -13 -78 3 -33 10 -58 16 -58 6 0 25 11
43 24 37 29 41 66 10 105 -24 31 -33 32 -56 7z"/>
<path d="M4960 4389 c-61 -33 -68 -43 -50 -64 18 -21 50 -19 50 3 0 25 41 62
68 62 26 0 38 -22 27 -47 -8 -17 -8 -17 -12 0 -7 29 -48 18 -48 -13 0 -23 3
-25 40 -22 57 4 65 8 65 35 0 33 -37 77 -63 76 -12 0 -47 -14 -77 -30z"/>
<path d="M8034 4924 c-18 -14 -18 -15 4 -4 12 6 22 13 22 15 0 8 -5 6 -26 -11z"/>
<path d="M7190 4595 c-25 -13 -41 -24 -37 -25 11 0 87 39 87 45 0 7 0 7 -50
-20z"/>
<path d="M7270 5709 c0 -5 5 -7 10 -4 6 3 10 8 10 11 0 2 -4 4 -10 4 -5 0 -10
-5 -10 -11z"/>
<path d="M4946 5594 c-34 -33 -12 -50 34 -27 31 15 32 17 15 30 -24 17 -30 16
-49 -3z"/>
<path d="M4985 5541 c-8 -14 37 -43 49 -31 6 6 4 15 -4 25 -14 17 -36 20 -45
6z"/>
<path d="M7150 5610 c0 -11 5 -20 10 -20 6 0 10 9 10 20 0 11 -4 20 -10 20 -5
0 -10 -9 -10 -20z"/>
<path d="M2336 5063 c-3 -3 2 -16 10 -29 18 -27 10 -47 -16 -39 -22 7 -33 -7
-24 -29 7 -19 47 -31 64 -21 9 6 9 10 -1 17 -11 7 -9 12 9 25 24 17 29 45 10
60 -19 14 -45 23 -52 16z"/>
<path d="M2437 5017 c-4 -10 3 -28 18 -44 22 -26 25 -27 40 -12 19 19 10 53
-13 44 -8 -3 -20 2 -27 11 -11 15 -12 15 -18 1z"/>
<path d="M2404 4945 c-8 -20 38 -71 55 -61 20 13 11 42 -19 59 -28 17 -31 17
-36 2z"/>
<path d="M2580 4919 c36 -35 41 -46 38 -75 -2 -19 -1 -34 4 -34 9 0 58 49 58
58 0 8 -123 92 -135 92 -4 0 12 -18 35 -41z"/>
<path d="M2503 4894 c-7 -18 7 -46 25 -52 7 -2 12 3 12 12 0 9 5 16 10 16 6 0
10 9 10 20 0 25 -47 28 -57 4z"/>
<path d="M2557 4844 c-13 -13 -7 -24 14 -24 11 0 19 5 17 12 -5 14 -22 21 -31
12z"/>
<path d="M2691 4811 c-13 -24 8 -55 34 -50 28 6 42 34 26 53 -18 22 -48 20
-60 -3z"/>
<path d="M2791 4769 c-25 -34 -23 -44 8 -34 24 7 45 40 36 55 -10 16 -20 12
-44 -21z"/>
<path d="M4117 4283 c-4 -3 -7 -19 -7 -34 0 -27 1 -28 98 -66 8 -3 12 5 12 25
0 22 -8 36 -27 50 -34 23 -67 35 -76 25z"/>
<path d="M6636 4025 c-34 -30 -224 -152 -358 -229 -63 -37 -61 -43 2 -11 110
56 318 189 360 231 53 52 51 57 -4 9z"/>
<path d="M6784 4018 l-19 -23 23 19 c12 11 22 21 22 23 0 8 -8 2 -26 -19z"/>
<path d="M6712 3950 c-44 -39 -155 -110 -337 -215 -153 -89 -542 -285 -565
-285 -11 0 -20 -4 -20 -10 0 -31 103 9 333 128 290 150 542 307 611 381 43 45
28 45 -22 1z"/>
<path d="M6190 3745 c-14 -8 -20 -14 -14 -15 5 0 19 7 30 15 24 18 16 19 -16
0z"/>
<path d="M5463 3586 c-13 -6 -23 -14 -23 -19 0 -4 14 -1 30 8 17 9 30 18 30
20 0 7 -12 4 -37 -9z"/>
<path d="M5030 3740 c0 -5 5 -10 10 -10 6 0 10 5 10 10 0 6 -4 10 -10 10 -5 0
-10 -4 -10 -10z"/>
<path d="M6630 7453 c-58 -30 -174 -90 -258 -134 -85 -44 -199 -109 -255 -146
-56 -36 -174 -108 -262 -158 -220 -127 -325 -192 -360 -222 l-30 -25 45 24
c25 13 86 48 135 77 461 272 582 341 800 456 280 147 293 154 299 172 8 19 1
16 -114 -44z"/>
<path d="M6815 7180 c-3 -5 -1 -10 4 -10 6 0 11 5 11 10 0 6 -2 10 -4 10 -3 0
-8 -4 -11 -10z"/>
<path d="M6987 6820 c3 -10 11 -25 19 -31 8 -6 14 -17 14 -23 0 -6 9 -22 20
-36 45 -57 8 -54 -66 6 l-57 47 -43 -22 c-50 -24 -55 -38 -19 -47 28 -7 31
-14 14 -31 -9 -9 -2 -21 27 -48 l38 -36 27 21 c16 11 31 20 33 20 17 0 106 64
106 76 0 8 3 13 8 13 21 -4 32 3 32 20 0 12 -12 23 -32 32 -18 7 -46 23 -61
36 -36 29 -67 31 -60 3z m101 -75 c-3 -3 -9 2 -12 12 -6 14 -5 15 5 6 7 -7 10
-15 7 -18z m-178 -25 c0 -5 -4 -10 -10 -10 -5 0 -10 5 -10 10 0 6 5 10 10 10
6 0 10 -4 10 -10z m54 -35 c11 -9 16 -20 12 -31 -6 -16 -8 -15 -26 1 -20 18
-27 45 -12 45 4 0 15 -7 26 -15z"/>
<path d="M6680 6774 c-47 -25 -120 -64 -162 -86 -43 -22 -78 -41 -78 -42 0 -2
17 -22 38 -45 34 -38 39 -40 57 -27 19 14 19 15 -8 41 -30 30 -33 40 -15 51
10 7 29 -11 63 -59 12 -18 14 -18 49 5 54 35 44 52 -31 50 -54 0 -53 14 3 45
53 29 58 28 80 -12 10 -19 24 -35 31 -35 8 0 29 15 48 33 34 30 35 34 29 80
-4 26 -9 47 -13 47 -3 0 -44 -21 -91 -46z m74 -20 c7 -19 -1 -34 -19 -34 -12
0 -25 21 -25 41 0 16 38 10 44 -7z"/>
<path d="M6755 6660 c-4 -6 9 -29 29 -50 41 -45 43 -50 20 -50 -9 0 -33 18
-53 39 -33 36 -38 39 -55 26 -18 -14 -17 -16 19 -57 46 -50 30 -66 -19 -19
-34 33 -43 36 -65 22 -19 -12 3 -51 29 -51 26 0 26 -27 -1 -35 -27 -9 -61 21
-53 47 6 21 1 22 -27 8 -19 -10 -18 -13 17 -55 20 -25 42 -45 49 -45 7 0 36
16 65 35 29 19 54 35 57 35 3 0 32 16 64 36 l59 36 -47 43 c-47 44 -76 55 -88
35z"/>
<path d="M6383 6607 c-15 -13 -43 -32 -60 -42 -32 -19 -43 -35 -24 -35 5 0 20
-17 32 -37 12 -21 24 -40 26 -42 2 -2 23 10 47 27 24 17 56 36 70 42 19 7 25
14 19 24 -11 18 -71 86 -77 86 -2 0 -17 -10 -33 -23z m17 -59 c31 -22 41 -44
16 -35 -7 3 -19 0 -25 -6 -8 -8 -16 -6 -31 8 -29 26 -26 45 8 54 2 1 16 -9 32
-21z"/>
<path d="M6194 6502 c-33 -21 -72 -46 -88 -56 l-28 -18 28 -15 c16 -8 38 -23
49 -33 20 -19 21 -19 53 0 18 11 38 20 45 20 6 0 27 9 45 20 32 20 32 20 13
39 -11 11 -27 34 -36 50 -8 17 -17 31 -19 31 -2 0 -30 -17 -62 -38z m52 -37
c23 -36 14 -38 -14 -4 -13 16 -19 29 -13 29 6 0 18 -11 27 -25z m-46 1 c0 -7
7 -19 15 -26 19 -16 19 -26 0 -34 -8 -3 -27 6 -42 19 -27 24 -28 25 -9 40 25
19 36 19 36 1z"/>
<path d="M6484 6499 c-3 -6 6 -24 22 -40 22 -23 25 -32 16 -41 -10 -10 -18 -6
-38 20 -14 17 -32 32 -39 32 -28 0 -26 -23 4 -54 17 -18 31 -37 31 -44 0 -21
27 -13 44 13 10 15 26 25 40 25 13 0 29 6 35 14 10 12 7 17 -16 29 -15 8 -37
24 -47 36 -21 23 -41 27 -52 10z"/>
<path d="M9000 6426 c109 -57 140 -66 140 -41 0 8 -9 15 -20 15 -10 0 -34 6
-52 14 -45 19 -140 57 -158 62 -8 3 32 -20 90 -50z"/>
<path d="M6943 6425 c7 -24 21 -41 41 -51 49 -23 100 -70 92 -83 -5 -8 -13 -7
-29 4 -12 8 -31 15 -42 15 -26 0 -45 18 -45 42 0 14 -8 18 -37 18 -76 -1 -116
-17 -155 -62 -34 -39 -36 -44 -22 -59 10 -11 13 -25 9 -39 -7 -21 -8 -21 -26
10 -11 17 -18 39 -17 48 2 14 -5 17 -34 16 -55 -2 -68 -17 -68 -81 0 -79 17
-104 102 -147 55 -28 97 -40 172 -52 128 -19 142 -23 158 -41 11 -14 8 -15
-22 -10 -232 36 -290 50 -355 88 -53 31 -42 7 14 -31 35 -24 47 -38 43 -52 -2
-10 0 -18 6 -18 5 0 12 -7 16 -15 12 -33 -33 6 -171 149 -118 120 -144 142
-154 130 -6 -8 -38 -28 -71 -46 -69 -37 -66 -57 7 -39 l46 12 107 -100 c231
-213 273 -251 282 -251 14 0 194 100 281 156 42 27 97 61 123 77 52 30 76 72
76 132 0 28 -9 45 -41 80 -23 25 -39 45 -35 45 17 0 87 -43 144 -89 59 -49 89
-59 126 -45 57 22 -44 92 -347 241 -93 46 -172 83 -177 83 -4 0 -3 -16 3 -35z
m-30 -97 c6 -19 -10 -48 -51 -90 -41 -43 -47 -45 -62 -19 -14 26 3 70 38 98
30 25 68 30 75 11z m262 -85 c31 -34 55 -83 55 -113 0 -58 -80 -152 -101 -119
-13 21 -11 28 15 60 l24 28 -23 86 c-26 94 -18 109 30 58z"/>
<path d="M6345 6420 c-3 -5 4 -23 16 -40 31 -42 14 -52 -22 -12 -32 35 -41 38
-58 19 -8 -11 -5 -19 14 -37 14 -13 25 -27 25 -32 0 -17 -28 -7 -55 22 -16 17
-34 30 -41 30 -27 0 -25 -23 5 -54 34 -35 39 -51 16 -60 -8 -3 -15 -10 -15
-16 0 -20 27 -9 60 25 19 19 40 35 47 35 8 0 31 9 51 20 20 10 45 21 55 24 20
6 23 26 4 26 -7 0 -27 14 -45 30 -35 32 -47 36 -57 20z"/>
<path d="M4845 6400 c19 -21 35 -18 35 6 0 9 -10 14 -27 14 -25 0 -26 -1 -8
-20z"/>
<path d="M6005 6386 c-39 -34 -40 -35 -25 -62 27 -49 43 -51 91 -14 24 19 46
35 47 36 7 5 -53 74 -63 74 -5 0 -28 -16 -50 -34z m50 -36 c0 -18 -33 -26 -47
-12 -6 6 -7 15 -3 22 10 16 50 8 50 -10z"/>
<path d="M6134 6325 c-4 -9 3 -23 16 -33 20 -16 21 -19 6 -31 -14 -12 -19 -11
-35 3 -15 14 -23 15 -45 5 -31 -15 -32 -22 -5 -60 l21 -29 46 38 c26 21 55 42
65 45 17 7 17 10 -10 41 -31 38 -50 44 -59 21z"/>
<path d="M5880 6300 c-12 -8 -9 -15 20 -45 18 -19 42 -35 53 -35 10 0 15 -5
12 -10 -7 -11 31 -70 44 -70 5 0 20 10 35 21 l27 21 -30 19 c-16 10 -37 30
-47 44 -9 14 -24 25 -34 25 -9 0 -25 9 -35 20 -20 23 -24 23 -45 10z"/>
<path d="M5825 6280 c-4 -6 -24 -19 -46 -30 -42 -22 -44 -27 -29 -50 9 -13 12
-13 23 2 7 9 24 19 38 23 19 5 26 1 37 -22 7 -15 28 -45 47 -65 32 -34 37 -37
60 -26 28 12 33 28 10 28 -8 0 -15 4 -15 9 0 5 -20 33 -45 62 -25 29 -45 59
-45 66 0 15 -26 18 -35 3z"/>
<path d="M7620 6125 c-22 -27 12 -45 54 -29 32 12 11 44 -29 44 -7 0 -18 -7
-25 -15z"/>
<path d="M7501 6067 c-17 -22 37 -44 57 -23 8 8 11 19 8 25 -10 15 -51 14 -65
-2z"/>
<path d="M7455 6029 c-4 -6 -5 -13 -2 -16 7 -7 27 6 27 18 0 12 -17 12 -25 -2z"/>
<path d="M7333 6015 c-18 -8 -33 -18 -33 -23 0 -14 30 -23 51 -17 9 3 20 1 24
-5 15 -24 22 2 8 30 -8 17 -15 30 -16 30 -1 -1 -17 -7 -34 -15z"/>
<path d="M7222 5929 c3 -24 33 -48 44 -36 11 10 -17 57 -33 57 -9 0 -13 -8
-11 -21z"/>
<path d="M7330 5925 c-7 -9 -10 -18 -7 -22 8 -7 37 15 37 28 0 14 -16 11 -30
-6z"/>
<path d="M7130 5895 c-10 -12 -10 -18 0 -30 17 -21 54 -15 58 8 3 15 -1 18
-20 13 -12 -3 -17 -3 -10 0 6 3 12 10 12 15 0 14 -26 10 -40 -6z"/>
<path d="M7070 5831 c-7 -14 -7 -22 0 -26 13 -8 40 13 40 31 0 21 -28 17 -40
-5z"/>
<path d="M7007 5794 c-9 -10 15 -54 30 -54 7 0 16 7 19 15 11 27 -29 58 -49
39z"/>
<path d="M7795 5770 c-3 -5 -1 -10 4 -10 6 0 11 5 11 10 0 6 -2 10 -4 10 -3 0
-8 -4 -11 -10z"/>
<path d="M6853 5733 c-18 -7 -16 -42 3 -50 8 -3 23 1 31 10 28 28 4 56 -34 40z"/>
<path d="M7838 5656 c-59 -39 -158 -104 -220 -144 -62 -40 -131 -89 -153 -109
-40 -35 -40 -35 -5 -13 221 138 411 265 455 304 22 19 38 35 35 35 -3 -1 -53
-33 -112 -73z"/>
<path d="M6306 5698 c4 -13 10 -50 14 -83 l6 -60 8 45 c5 33 3 55 -8 83 -18
40 -32 51 -20 15z"/>
<path d="M6741 5691 c-19 -12 -6 -41 18 -41 20 0 31 17 24 38 -5 14 -22 15
-42 3z"/>
<path d="M5510 5410 c0 -5 4 -10 9 -10 6 0 13 5 16 10 3 6 -1 10 -9 10 -9 0
-16 -4 -16 -10z"/>
</g>
</svg>
